/* XPM */
static char *result[] = {
/* columns rows colors chars-per-pixel */
"64 64 67 1 ",
"  c #150F0C",
". c #16100D",
"X c #1A110E",
"o c #1C1411",
"O c #1F1D1C",
"+ c #211612",
"@ c #261916",
"# c #291B17",
"$ c #211E1D",
"% c #2B1D19",
"& c #22211E",
"* c #231F20",
"= c #252322",
"- c #292625",
"; c #262823",
": c #2B2927",
"> c #2D2B29",
", c #3E2A24",
"< c #312E2C",
"1 c #3A3527",
"2 c #34312E",
"3 c #39322F",
"4 c #363331",
"5 c #393633",
"6 c #3C3936",
"7 c #3F3B38",
"8 c #432D27",
"9 c #43312B",
"0 c #403B36",
"q c #413D3A",
"w c #673321",
"e c #763A27",
"r c #7D3D26",
"t c #594F26",
"y c #5C5022",
"u c #45413D",
"i c #49423F",
"p c #735122",
"a c #6F6124",
"s c #7C6D24",
"d c #464340",
"f c #494541",
"g c #4C4944",
"h c #843C22",
"j c #913F22",
"k c #9D4223",
"l c #A64422",
"z c #B94820",
"x c #837222",
"c c #8A7724",
"v c #8F7C23",
"b c #C64B1E",
"n c #C84B1E",
"m c #C76D1E",
"M c #C96A1E",
"N c #C6751F",
"B c #B38D1F",
"V c #BE9C1F",
"C c #BDA01F",
"Z c #998422",
"A c #C3831E",
"S c #C8841E",
"D c #C58A1E",
"F c #C98A1E",
"G c #C5931F",
"H c #C99C1E",
"J c #C5A81E",
/* pixels */
"$$==;;=;=OOOOOOOO****;=***O*$$$&O&O&&$==;;==OOOO$O$$****O&*O*&*;",
"O===;;:;==*O$**=;;*;;==;==O*OO=$===;====::===$$O&=;;;;=;:;::;;*=",
"$==-;<<<>;=**===;;>>:>>;;;;*O==;=--::::><>>;===&=;::>>>><<<<>:=*",
"$==->244<:===-:>>>>><<<<>:;=*=--:>>>>><4444>>:=&-:>>>><2444<>-**",
"&==><254<:===-><<<>2222<<>-;==--;><<4222444<>:=*-:><<2223552>:=$",
"&&;:<252<:;==:>><<>2222<>:-===;:<<<22222422<>:=$=:><>2<2252<>:=$",
"$=;>><22>>;==:><><<>><<<>:;**==:;<<<<22222>::-=$=:>>><>422<<>:=$",
"$==>><>>>;===;:>>>>>>>>>;;=***=-;>>>><>><::---**==:>>>>::>::::=&",
"&;=:>>:>>;;&&=;-;:;;=;*===**OOOO*O*;;;===***&&$$=*====;==:&$&==&",
"$&-::;;;:==OOO$&=;=**=========;;;;;****==**=&&$=====**===;;;&;==",
"$==:;;;;;==$&===***==:;-;;;;;:;:;>*****==-=-;-;;=;;==*==::::::-=",
"$;---->;:::::--=*===;:::::>><<>>>;;**==;::::>:::>>:====:>>><>>=&",
"==:>;>2>><2>>>:==*=::>::>>><222ca>:*===>>>>>>><<>>>:;=::><<24>>=",
"$-:>><2>25552>>:==;:>><<<<<4552Zs>====:>>>>><<22442>;;:>><<444:=",
"&=:>222446664<>;==;:>><2<224556JZ>;==::>>>222245464<;;;>>><464>=",
"$&:>242422552<>:;==;><<<222432xVc4;==::><<2444466642;;;>>><264>&",
"$$->22222222<>>:=**-><<<<<4222VSBvtx-->>><4444335442;=;>><2444>*",
"&&&::<>2<<>>>>--==*--->>>>>><tHSDGHJ*--->><<4443442>;===:>244<<-",
"=&=-::::<:>*-:--==-*-=----::-aFSNDGc---->->>>><>><>:==*=*=--:===",
"==&=&&--*:::->>->:-:>>-------pFSSFnh->>>>>>>-->->:>>>>;:-=--::-;",
";---::>:>>::><<<<><><<>>>:--:jMNNnne<4<<<<>>--->>><2<22<<<<<<<--",
"=::<2<<2<>>:<<<444244242<:-:>9bbznh6444444<>--><<4244444242222-=",
"-:<223222<*<<24445566644<<:*<<wlje957qqq544>>-><24445667664444--",
"--22366542<*<355567u0064<<:-:<+888*5qiddq54<>>-<245667qdfdq644:*",
"-:<36qqq42<:>35570uddu65<<:=:<X+@%@0qiggd553>>><43577qiggfq03<:*",
":-<46qqq42>><35567qudq652<:-<4XX+%@qqqdii55<>--<4355757iid703<>>",
"-><55q0533<>>235566665433>>:<< X+%#066q6553<--<<<4344555552<<>:-",
"-><<2223><>:><<3222443<<>>>>><. X%#3433233<<--->>>>>>>->>>:>:>>-",
"-::>:<>>*<*<::*<:><>::--:-=::>o.X++<<><>>>->->>------>->>>>>>>--",
"--:::>>><<<<<>>:>>::<>>>>:<<<<@ XX*>::>*->->>>><3<<3>>>-><<<<<,>",
"-><<3222323232<<>::<<<33333<<3: X@<>*:><<<<<<<<75534<>-><<4553<-",
"-><335555qq6532<<-:<<<45554606< X#<>>><3355<557qqqq54->><457q53>",
"-->457777ddiq53<<-><4<576667qi0 X#<>*>335755577idiiq3>>-<37qdq4>",
"-->4577qqdiiq73<<--<<557qq77qqq+X@<><><3577777qqdiiq3-->435qqq3>",
"-->457577qqq743<<--<555766666q0- <<>::4357777777q7774->-><5777>>",
"--><455355755<<>>>><<<5<<333<<<<+:::-><24333<4<4333<<>>-><<344>*",
"-*><4<><4<<<<<<>---<>>>>>->-:::>>>--::->->>->>>>--->-->>>>>>>>--",
"---><>>>>-><--->>><<><>>>>>>::>>>>>>:::>>>>->>->>>-->>>>>>--->--",
"--><<><<<<<>><<<<<3<<<<<<<>>:<><<<<<<<<<<<<>>---><<<<><<<<4<3<--",
"--<<455553<>><4455555753<<<->><233525257554<<>->><3<344357553<--",
">-<<377qq54>><45577qdd7543>>>><3557767qiqq54<<--<435457qdiq74<>-",
"->435qqdq74<>45557qqidq7432>>><556777qiddq54<<-><455777qiiq744>-",
"->3357qqq7<<>35577qqiqq733<::>23666676qqqq55<<-><4555777dq7544>-",
"*><35775543>><477777775433<>::2255665776755<<>>>>><3<5444543<<>>",
"--<4375344<>><333<3<444<<<<>::<2<<2<4232<<2<>>>>>->->--->>>>->--",
"*-:><<<>>>>-->>>>>>>>>->:::-:::::::*:>>:***-*--->>>--**-**-**-**",
"--------->--->>>>>>-->>-::<><:>>>>:>::*::*--:->><><<>*-*->>>>->*",
"**--*--**->-><>>>>->--><<<<<<<243<<>::**>><<22444<3>>*-->>4<44>*",
"**>>><><4<2<442<<>>::;><<<444567742>>;=;><25566675<>>**>>24654>;",
"**:>>45565566542<<>;:;><4445600q742<>:**:<456677775<>*;>>44664>*",
"**:>446666666662<>>:;;><24666666442>>:;=><466767775>>**>>24542>*",
"**>>>45655654442>>::*;:><344454422>>>:**:<456566555<<**>><2>>>;*",
"*=->>244444<2<>>>::=&;::>>><<><<<>>>->*;-><<<><2<><>>-*=--:-;-=*",
"**;=-;---:;:;>;;=:=:&&;;---;--*$;;;;-;=*===--=*=---**--*;-;;;==*",
"*****===*===;;=O:=--:::<:>::==;-=;;;;;-=--::-***-->>>----=;:-=**",
"*;;=-:-:>:::;;*;=::><<22>>::==::<>;>>>>>:>>>:===->>->>->>>>>>;;*",
"=::>>>>24<<:--*=>>>>2554>>>:==:><>>><44<<<>>;;==>>>>>>><42<<>;;*",
"*;:>><45664>>-==&><14774<>>:==>>>>>><47752<:=;=::;>>><<44542>;;*",
"&=-><246774<>-*=<<<24552>>:==&::>><><25775>>:*;=;>><22245542>>*O",
"=;>>>>4444<>>:==&<<22222>::;&=::><22<24456>::;==:>;<<<22442<>;*O",
"*;-:>>>>>>>::===:>><2<>>>::==&=:><2<2<<<<<:>:;==;:>><<<<<<>>:-=*",
"$=-:-:>>:;:::=*=-:>>:>>-::::&==::>><>>>>>:::>=&&;;;:>;:;->;;;;=;",
"$$=;;====OOOO***==-=====&==**===;-;;:;;;===;;==&;*=**&O****=*=*>",
"*$$$*=OOOOOOOOO*&====*OOOOO&***===***O**=**&**&&==;*OO*O**==;-:-"
};
