/* XPM */
static char *result[] = {
/* columns rows colors chars-per-pixel */
"64 64 71 1 ",
"  c #150F0C",
". c #16100D",
"X c #1A110E",
"o c #1C1411",
"O c #1F1D1C",
"+ c #211612",
"@ c #261916",
"# c #291B17",
"$ c #211E1D",
"% c #2B1D19",
"& c #22211E",
"* c #231F20",
"= c #252322",
"- c #292625",
"; c #262823",
": c #2B2927",
"> c #2D2B29",
", c #342B25",
"< c #3D2923",
"1 c #312E2C",
"2 c #34312E",
"3 c #363331",
"4 c #393633",
"5 c #3C3936",
"6 c #3F3B38",
"7 c #422C25",
"8 c #4B2E25",
"9 c #4B3225",
"0 c #45352C",
"q c #403B36",
"w c #413D3A",
"e c #45413D",
"r c #49423F",
"t c #73402D",
"y c #724430",
"u c #464340",
"i c #494541",
"p c #4C4944",
"a c #84441E",
"s c #AA5A1E",
"d c #915E23",
"f c #B9572E",
"g c #B35A32",
"h c #CA4C1F",
"j c #C75C1D",
"k c #CE5B1F",
"l c #D46A1F",
"z c #D8701F",
"x c #E86318",
"c c #EB7018",
"v c #CB4E21",
"b c #CD5123",
"n c #CD5821",
"m c #CF592C",
"M c #D25425",
"N c #CE6222",
"B c #C7652A",
"V c #D16823",
"C c #E46520",
"Z c #BF8122",
"A c #BC9629",
"S c #E9841E",
"D c #D78422",
"F c #CC9526",
"G c #D79225",
"H c #DCA727",
"J c #D5A528",
"K c #DAAA28",
"L c #DCB92B",
"P c #E1A827",
"I c #E1AC28",
/* pixels */
"$$==;;==**$$OOOOO***===**OO*OO&&$$*$$$&=;=;=$OOOO$$&****O****O==",
"O===;;::;=*OO$**=;==;=;====O$$&====;===;;:===*OO&===;;;-;;:-;;*=",
"$==-;11>::=$==;=;;;;::>>:;;OO=====:::>>>11>:=;===:::;>>>2121>:=*",
"$==->243>:;*=-:>1>11121>>:;=O=::::>>>>13331>::=$;:>>1>123322>-*$",
"&==>12431:==;:>>11121222>>:====:;11121223331>:==-:>>3>1334421-&$",
"&&;:12421>====>>11111212>>====::>>1222333221::=$=:>2>2132332>:=&",
"$=;>>122>>;==:>1>1>1111>>:;====:;2>22112211:::**=:>>2>11221>,:=$",
"$==>>1>>>;===;>>>>>>>>:>;=;*O===;>>>>1>>1:::-=*$==:>:>:>>>>:-:=&",
"&=;:>>;>::;&$&;;--:;;;*=;=*O$OOO&*&*=====*$&&&$$*=====-==;&&$===",
"&==::;:;;;=$O$$=;;*O*=;===*;====;;;&=====*&*&&&======**==-=;====",
"$==:==;;===$*====***;=:-;-::;::::;=*&$==----;-;;=--==O*;::::::==",
"&==:::1;>::::--=**=;-:::::;>111:>>;*$==;::::::>:>::====:>>1>>>;&",
"=&:,;11;>121>>:;*==:>>>>>>>22222>11;&;;>:>>>>>>111>;;;:>>1>221>=",
"&-:>>11223521>::===->>>>>1134422>dB;&;;>>>>111223221;;;:1>2333>*",
"$=:>2223355531>;;=;;>>>22>3344421JJ=&::::11222344421;;;>>11353>*",
"O=:12323224521>:-==:>121222333311LK-;;:>112223455532;;;>>>1343>=",
"$=;>2232313111>:**-->,1111212AF12GC----1>13333334332;*->>>1333>=",
"=O=::>>21>>>>::>-***-::1>>1>1HI:sVC----->>111333332>;==-:>2231>-",
"&&==-::;>>--*:****-*-----:::-DzacMm0*----->>>111>1>;;=*=*=--:=-=",
"==&=&--;*->-1>1>1>-::::------jNCVMvg->>111>>--->>1;1>::-----::--",
"=--::::>>>>>>11111111111:---:fhMMhm0111111------>>>22112>>>>>1-:",
"-->,21121>>-1133313322211:::18Mhbvy233333331--1122233333333222-=",
"-:12132211->1333334454423>:*>18vbt744w664311>-><23335556655322--",
"--13455431>-113446wwwwq211:->1@78<%5ruruu4311--12345566iuu6542--",
"-:134wu642>*13346wwuiww411:-:1X+@%@qwippr6411>-1144666urpur441*>",
"--14qwwq42121334566ewwq32,:->3XXo%@wwwuuw531>->13344466rruw431::",
"-:13q4qq411>11304555qq421>>:>3 Xo%#5qww50431>->>133344044331>,::",
"->1213311>>:>1122323221>,,>>>1 Xo%#323223311-->>>>>1>>>>1>>>->>:",
"-:,>>>:::>-:::->:111:-->:--->>XXo++11,1:>-->-->---->>->->>>>>>,-",
"--::>>>>111>>>>>::::>>>11>>>1>*  X%>->--->>>>113311<>>->>11111>>",
"->1111333333311>1::11121223333- X@>>-->13111113443431>->1333q11-",
"->1344440466q331:::1124444444q1 X#1>-1123333334wwww43->-13456q3>",
"-->344666urrw4411--113q666w4ww6XX#1:*1334644446uupu63--,145wrw1>",
"-->346w6wrrrw4411>-13354466wrwwX $3>>>134www6wwwrrrwq->-135wrw1>",
"-->34w666wrw63311--3135566q3666- 11>:>1404666666ww6qq*1->146w41-",
"---34344444433111>-113333333311>+:->,>113333311331311->->11334>-",
"-*-111111313111<->-1>>->>>--->,,->:::>::>>>1>>>>>-->--->>>>>>>*>",
"---1>>>>>>>*----->>11>>>->->>>:>>,>>*>:>1*>*>>->,>--->>>>>->->--",
"--><1>11111>>111133111>11>>>>>111111>2111111>,-->1111111111131--",
">-113344433>>113334453q3331-:>113333334q43311--:>1133333464331,-",
"->14466ww43>>134454wru64421>>>1433q4q6wuu6331>::11353q4wrrw633--",
"--1346wrww31>3365wwrrru64211:>13qqw66wrru64311::135446wwrrw633>-",
"->1346www43>>346wwwwrw64421::,14q66666wwu6433>*>1334w46wrww333>-",
"*>1446464411>1445655466432,1::13344qq44q44331>1>>>311q33433311>>",
"*>134443111->11341333433111:::>2113233332233>>11->->>-->-->>>>>-",
">*->1111111>-11>>->-->--::::,::>>****>1>*******>>>>--****-****-*",
"*------------>>>>>->->->->1:::>>1>>>>*****>*>*111>11>***>>-1>--*",
"**-*--*---->>>>>>>>>---111111222321>>>>*>112323333111*-->13341-*",
"**1>>112222223211>>>;:>>22234456532>>;==>12334555411>*=->23553>=",
"***11233535453521>>;;;>123354www542>>;==>1356666w531>==>>33552>*",
"**>123455656553211::;;>124444555532>>;==>>3566666631>**>113332>*",
"**>>134553444422>>:-==>>12344343221>>>*=>13354554431>==>>121>>;*",
"*-->>1322222221;:::-&=:>>>>>111>>>>;->*=:>>11>>1111>>-**::>::-=*",
"**=----:-::-;;;:=---=&;;-----==$;;;:-;=**-=:====>*-**--*=;=;-==*",
"***$==&===;==;;O;:-:::>>>>::===-:;;;-;;-=-::-=***>->>-----::;:**",
"*-==::::>::--==;=::>>121>>>-==:>>::>>>>>>:>>-===>>1-::>>>:;>>;&*",
"=::>>>>331>>>-==::>>2452>>>:==:>>>>>>2331>>>;;=-;>>>>>>12211;;;=",
"$;>>>>34643>>===;>1236631>::==>>>>>>146653>>;==-;>>>>11244321;=O",
"*;:>22346631>-*-:1223552>>:;&=::>>>>>256631>:==->;>>22234432>>=O",
"=;:>>>3333>>>:*=:,,22221>>:===;>>223222344>::;==:>>>12222231>;=O",
"$-::>>>>>>:::-*=;111111>:::-=*=:>2>211112>>:;;&=::>>21>211>>>-=O",
"&&=:::>>::::--*=-:::>>>-:::====::>>>>>>>:>::>;&=;=::;>>;:::;;;=;",
"$$==;=*=*$*$OOOO==--==&======O==;---;:;;;=;====&*=*=&O&&O****=*>",
"=O$&*=OOOOOOOOO=&=&==OOOOOO$***===;*OO**$=$**=*===;*OOOO**==;->-"
};
