/* XPM */
static char *result[] = {
/* columns rows colors chars-per-pixel */
"64 64 77 1 ",
"  c #150F0C",
". c #16100D",
"X c #1A110E",
"o c #1C1411",
"O c #1F1D1C",
"+ c #211612",
"@ c #261916",
"# c #291B17",
"$ c #211E1D",
"% c #2B1D19",
"& c #22211E",
"* c #231F20",
"= c #252322",
"- c #292625",
"; c #262823",
": c #2B2927",
"> c #2D2B29",
", c #3E2A24",
"< c #312E2C",
"1 c #34312E",
"2 c #3C342A",
"3 c #363331",
"4 c #393633",
"5 c #3C3936",
"6 c #3F3B38",
"7 c #432D27",
"8 c #423A26",
"9 c #45342F",
"0 c #52362C",
"q c #5F372D",
"w c #413530",
"e c #403B36",
"r c #413D3A",
"t c #5B3C32",
"y c #66382C",
"u c #763523",
"i c #643E33",
"p c #713F32",
"a c #45413D",
"s c #49423F",
"d c #72532F",
"f c #774336",
"g c #734538",
"h c #725735",
"j c #464340",
"k c #494541",
"l c #4C4944",
"z c #8B4B39",
"x c #9C523C",
"c c #A5452B",
"v c #BF4525",
"b c #B0462A",
"n c #BD4A2B",
"m c #A3553C",
"M c #936332",
"N c #A47232",
"B c #C14626",
"V c #C44D2D",
"C c #C15032",
"Z c #C4753B",
"A c #CA713F",
"S c #C67D39",
"D c #D57B3F",
"F c #CD6145",
"G c #D16344",
"H c #BF912F",
"J c #BE8633",
"K c #CF8737",
"L c #CC8F35",
"P c #CD8739",
"I c #D6823A",
"U c #CE9332",
"Y c #D59635",
"T c #D69B33",
"R c #D79038",
"E c #D3AC2C",
"W c #D3A130",
/* pixels */
"$$==;;==**$$OOOO*O***=****OOOO$O$$*$$$$=;;==OOOOO$O$**OO*OOO*O*=",
"O===;;::;=*OO$**===;;;;;;=&OO*==*==;==;;>;-==$OO&===;;;>;>>>:;==",
"$==-;<<>::=$==;=;;;;->>>--;*O===;-:::>:>><>;=;*==:>:>>>><<<>>==*",
"$==->143>:;*=-:><<<<<<><>-;=O=--::>>>>>3331>::;*;:>>>>>13331>:=$",
"&==><143<:===:>><<<<113<>>-;==->>><<1111333<>:=*-:>>3<11144<<-=$",
"&&;:<141<:;=;=>>><<113>3>>-===-:>><11113331<>-=$=:><>1<34331>:=&",
"$=;>><11>>;==:><<><<>>>>>-;=*==->><<111111>::-=$=:>>><<<11<<::=$",
"$==>><>>>:===;>>>>>>>>>>:;=*$$;->;>>>>>>>:::--*$==:>>>:>::::::=&",
"&&-:>:>;:;;$$=;-:;;;=;====&&OO*O&O&*--;=*=$$$=OO*====*;--;$$&==$",
"&&--::;;=;;OO$$==;=**=======&=&;;;;*&**&=*$=*========*==;-;;&;==",
"$=;-;=;;=;&$$**=&&*=;;-=;;:;>>;>>;;*$**;-=--;-;;=:-==*&=-:::::-=",
"&-;:;:>;>>::::-=**==-->>>>>>>>>>>:;*$==-::>-:::>:::=*=;-:>>1>>-&",
"&--:>>>>>1<<>>:;=&=>>>>>>>><111<>>-**;;->>>>>>><>>>;==->><<<1>>=",
"&-:>>>1114441>::==;->>>>><<34hU1>>;===->>>>><<<<331<;;;>><<333:=",
"&&:>111334643<>;==;>>>>3<<<34PY2>3M==-:>>>111135444>;;;>>>1453>=",
"$&:<113313441<>:;==:>><<13333ETg>hH;=:>>><1344355541>;;>>>>153:=",
"$&-><111<333<>>>***-:<<<<<<<<TYt>PF*---><<<43444441<;=->>><333>=",
"$&;::<><<<:>>-:>-**--:>>><<<gGEN2YF-*-->-<<<<<3<331>;&&-->333<>-",
"==&=::::::-:-*>***-*----*>::zEUmGLFf---->-->><,>>>>>==&===---===",
"====&&-:-:--:>>>>>::::--::*:0xKxFCnf>>>>>><>--->>>>>>>>;--=->>--",
"=---::::-::><<<<<><><<<<>:*::CBnCvn9<<<<<<>>-->>>>>111<<><>>><;-",
"--><1<11<<>-<<<333113<3<<::>:yvvvvV1333433<>-->>1111333331113<--",
"--<111113<-:<<33434555331>::>1ubcq734r66443>>-><11444556655331--",
"-:<145543<>-<33445rrre531>:*><+77,#5jjjjj43<>>-<1345566ljjr533:=",
"-:<35rar31>><33w6raajre33<:-:<X+@&@erllls64<<>-<334r66rlljs53<:*",
"-:<45ra533>><344566ase63<<:->3XX+%@errsjr44<>-><334466rssjr43<::",
"-:<355rw3<<><<3w4555ee41,<::>3.X+%#555e6933<->><<33333445331,>>>",
"-:<11111<<::><<<13133<<<<>>>><..X%@23333333>--->>>>>>>>>>>>:->:-",
"-::>>>::>>-:::->:<<<:----:--::XXo++<<<:>::->-------->-->>>>>>>::",
"--:>>>><<<<>>>>-::::>><<<:<:<<#  X#<:::--<>>><<3<7<3>--><<<<<<>:",
"->,<1111333333<<<::<<<<<<3<333- X@<::::<<<<<<3334443<>-><<3443<>",
"-><33444w4eew33<:::<<34454454e< X#<:-><1333333wrrrr43->><346r9<>",
"---346646jssr433<>:<33445ee66sr X#1>*<<34644466sjls64->><34rjr3-",
"--<356r6rsssr43<>--<34666666rrro #1>>><4466666rrsss64--><36rjr3>",
"-->345666rrr643<<--<<34456e4669: <<>--13w66w6666rrr54->->74665>-",
"-*-33444444443,<>>::3333<3333<<<o>:::<<13333<3<33<3<<>>-><<<33>-",
"---<<<<<33<<<<>>>>->::><>:::--::>-:::::::>>>>::>:>>-:->-->>>>>--",
"---<<>>>->>---->>>><><<->-::<-<>>>>>->>>>:::><:::>->>>->>>>-->--",
"--><<<<3<<<>><<<<33<<<<>><<:><>><<<<<<<<<<<<>::>><<,><<<<3<33<--",
"--<<<34443<>-<33339464444<>>:>113333334w333<<>*>><<<333449433<>-",
"-><344rj643>><34446rsj6433<>><<39445e6rsj633<<*><334444rjjr44<>-",
"--<354rjsr3>><3666rrjsr633<<->134e666rssjr43<>>><34466rrssj443>-",
"--<466rrr43<>34666rrrrr433,>-<,356r666rrj6433>*><3w66666rr643<>-",
"-,<4466443<<<334666666543<<>-<<3354e44e54433<<<>-><<<3434433<<<>",
"--<<34443<<>><334<3433331<>>:>><<<111333111<<>><>->->-->>->>>>--",
"*--<><<><>>--><><--->>>--::>-:::>**:::>:**:****>>>>:-****-**-***",
":*----------->-<>>->--->>>>>>><<<>>>:*::**>*>*<<<<<<>***>>>>>>-*",
"***--*--->-->>>><->->->><><<<1113<>>>:**><<<11333<<<>-*-><333<>*",
"**<>><<111111111<>>::;>>33311555531>>;=;:<33445544<<>**-<13553>;",
"***<<133434455311>>;;:><<3344rrr541>>:**:<346666r64<>==><13551>*",
"**<<<35565565651<>>-;=><33555555531>>:==><366566653<>*=>><3331>*",
"**>>13445444431<>>>:&;>><33333413<>>>:==:<335454443<>*=-><1<>>;*",
"*-:>><33<3<311>>:::=&=:::>:<<><<<<>>>-*=-<<<1>>1<<>>>-==->>;--=*",
"**==---->->-;;:;;=--&&;:------=$&;;;-;====-=====----*-=-==;=;==*",
"***=;=====&;;;=$;::::::>::>:==;-=;;;;;;=----==***>>-------;;>;=*",
"*====:::>---;;===::>>111>>>:==-:>>;>>>>>>>>>:===->>>>>::>>>>>;**",
"*:::>>>333<>>;*=>>><2451>>>:==>><>>>>333<>>>:;==;>>>>>>111<<>;;*",
"*->>>>3344<<>=-=&><<46e3<>::=;:>>>>:>46453<>;=;-;>>>>>11333<<;=*",
"=;:>3135653<>:*-<<111531>>:;=*::>><<>15663<>;==->;>>11135341>>=O",
"*;:>>>1343>>:-*=&<<11111>>:=*=::<<11113335>::===>>>><111331<>;*O",
"&;::>>>>>>>:--==::1><<<>>::=*=;:><1<1<<<1>>::===;:>>1>1>>>>>>;=*",
"$&::::>>:::;--*=-:::>:>::::;==;=>>>>>>>>>>::;;&==:;:;>::>:>;;;;=",
"$$&;;;=***$$$$$$===-==$=====**==--:;:;;;==-=;==&=*;*&O&=***&***>",
"=O$$**OOOOOOOOO$*====$OOOOO$$$*===&*$O*&&O=O==**=;=*OOOOO*==;>--"
};
