/* XPM */
static char *_0fa22851bb643eef2b7d926d1f9a258WVjX1EJRPnfG4SDa[] = {
/* columns rows colors chars-per-pixel */
"64 64 133 2 ",
"   c #3A3B3D",
".  c #3B3C3E",
"X  c #3C3D3F",
"o  c #3E3E3E",
"O  c #3F3F3F",
"+  c #3D3E40",
"@  c #3E3F41",
"#  c #3F4042",
"$  c gray25",
"%  c #414141",
"&  c #404143",
"*  c gray26",
"=  c #434343",
"-  c #414244",
";  c #424345",
":  c #434446",
">  c #444444",
",  c gray27",
"<  c #444547",
"1  c #464646",
"2  c gray28",
"3  c #454648",
"4  c #464749",
"5  c #47484A",
"6  c #484848",
"7  c #494949",
"8  c #48494B",
"9  c gray29",
"0  c #4B4B4B",
"q  c #494A4C",
"w  c #4A4B4D",
"e  c #4B4C4E",
"r  c #4C4C4C",
"t  c gray30",
"y  c #4C4D4F",
"u  c #4E4E4E",
"i  c gray31",
"p  c #4D4E50",
"a  c #4E4F51",
"s  c #4F5052",
"d  c #505050",
"f  c #515151",
"g  c #505153",
"h  c gray32",
"j  c #535353",
"k  c #515254",
"l  c #525355",
"z  c #535456",
"x  c gray33",
"c  c #555555",
"v  c #545557",
"b  c #565656",
"n  c gray34",
"m  c #555658",
"M  c #565759",
"N  c #585858",
"B  c gray35",
"V  c #58595B",
"C  c #5A5A5A",
"Z  c #5B5B5B",
"A  c #595A5C",
"S  c #5A5B5D",
"D  c #5B5C5E",
"F  c gray36",
"G  c #5D5D5D",
"H  c #5C5D5F",
"J  c gray37",
"K  c #5F5F5F",
"L  c #5D5E60",
"P  c #5E5F61",
"I  c #5F6062",
"U  c #606060",
"Y  c gray38",
"T  c #606163",
"R  c #626262",
"E  c gray39",
"W  c #616264",
"Q  c #626365",
"!  c #636466",
"~  c #646464",
"^  c #656565",
"/  c #646567",
"(  c gray40",
")  c #676767",
"_  c #666769",
"`  c #67686A",
"'  c #686868",
"]  c DimGray",
"[  c #68696B",
"{  c #6A6A6A",
"}  c #696A6C",
"|  c #6A6B6D",
" . c #6B6C6E",
".. c #6C6C6C",
"X. c #6D6D6D",
"o. c #6C6D6F",
"O. c gray43",
"+. c #6F6F6F",
"@. c #6D6E70",
"#. c #6E6F71",
"$. c #6F7072",
"%. c gray44",
"&. c #717171",
"*. c #707173",
"=. c #727272",
"-. c gray45",
";. c #717274",
":. c #727375",
">. c #737476",
",. c #747474",
"<. c gray46",
"1. c #747577",
"2. c #767676",
"3. c #777777",
"4. c #757678",
"5. c #767779",
"6. c #77787A",
"7. c gray47",
"8. c #797979",
"9. c gray48",
"0. c #7B7B7B",
"q. c #7A7B7D",
"w. c #7C7C7C",
"e. c gray49",
"r. c #7E7E7E",
"t. c #7D7E80",
"y. c #7E7F81",
"u. c #808080",
"i. c #818181",
"p. c gray51",
"a. c #838383",
"s. c #818284",
"d. c gray53",
/* pixels */
"u u u u u u u u u u u u u u u u r i r r u Z <.<.Z r r i r u u i i i u u u u u u u u u u u u u u u u u u u u u u u u u u u u u u ",
"u u u u u u u u u u u u u u u u u i r u u Z <.<.J u r u r u u i i i u u u u u u u u u u u u u u u u u u u u u u u u u u u u u u ",
"u u u u u u u u u u u u u u u u r i r r u Z 2.<.Z u r u r u i h i i i u u u u u u u u u u u u u u u u u u u u u u u u u u u u u ",
"u u u u u u u u u u u u u u u u u i r u r Z <.<.Z r r u r u u i i i i u u u u u u u u u u u u u u u u u u u u u u u u u u u u u ",
"u u u u u u u u u u u u u u u u r i r r u Z <.<.Z i r u r u i i i i u u u u u u u u u u u u u u u u u u u u u u u u u u u u u u ",
"u u u u u u u u u u u u u u u u u i r u r C <.<.Z u r u r u i i i i u u u u u u u u u u u u u u u u u u u u u u u u u u u u u u ",
"u u u u u u u u u u u u u u u u r i r r u Z <.<.Z u r u r u u i i i u u u u u u u u u u u u u u u u u u u u u u u u u u u u u u ",
"u u u u u u u u u u u u u u u u u i r u u Z <.<.Z i r u r u u i i i u u u u u u u u u u u u u u u u u u u u u u u u u u u u u u ",
"u u u u u u u u u u u u u u u u i i r i r Z <.<.Z u r i r i i i i i u u u i u i u u u u u u u u u u u u u u u u u u u u u u u u ",
"u u u u u u u u u u u 0 u 0 u u r u r r u Z <.<.Z u u r r i i i i u u r u u u r r u u r u r r u u u u u u u u u u u u u u u u u ",
"d u u u u d u u u u u u u u u u u i r i i Z 7.<.Z i u u u i i i i i u u i i i i u i u u i u u u i i i i i i i i i i i i i i i i ",
"u u 0 u u u u u u 0 u u 0 u u 0 i i r i r C <.<.Z u r r r i u i i u u r r u r r r r u r r u r u u r u r u r u r r u r u u r u r ",
"u u u u u u u u u u u u u u u u i i r r r Z <.<.Z i u u r i i h i i i u i i i u i i i i i i i i u u u u u u u u u u u u u u u u ",
"0 u 0 0 u 0 0 0 u u u u u u u u u r 7 r r B <.<.Z u r r r u i i u u r r u r u r r u r u r u r u r r r r r r r r r r r r r r r r ",
"u u u u u u u u u u u u u u u u u u r u r C =.<.Z u r u r u u i u r r r r u r r u r u r u r u r u r r u r u u r r u r u u r r u ",
"B F B B F B B F B B F B B F B B B Z B Z B ^ e.8.' Z C B B Z Z J Z Z C C B C C C Z Z Z Z Z Z Z Z Z Z Z Z Z Z Z Z Z Z Z Z Z Z Z Z ",
"q.8.;.$.4.4.6.4.;.>.4.4.4.1.;.$.1.1.<.2.7.8.e.r.7.1.7.<.7.7.=.7.6.q.$.@.6.6.1.;.;.4.4.6.4.1.;.;.<.2.2.2.2.2.2.2.7.7.7.7.2.7.7.2.",
"t.q.>.$.1.4.4.4.;.$.1.4.4.>.;.$.2.1.<.<.2.7.7.7.7.<.<.<.<.<.<.8.t.s.4.$.4.1.@.@.@.$.;.;.>.;.>.;.2.2.2.2.2.<.2.2.<.<.2.<.<.2.2.<.",
"@.[ I D L L L L D D D L L L L D C C Z C C B B B C B Z B C B B Y 4.4._ L L D l p s l v V D D D D Z Z Z Z Z Z Z Z C B B B B B C C ",
"! L l p p p w p w w w p p p p p r r r r r r r 0 r 0 r 0 r r r B $.$.L s p 8 : + + ; 4 8 p p p e r r r r r r r r r r r r r 0 r r ",
"` ! m p p p p p w e p p p s p p i u i u r i i i u r i u r r i Z 1.1.L s p e 5 4 4 4 e s l l s s i u i u u u u r u u u i u u u u ",
"| ! m p p p p p p p p e p p p p u i r u r r r i r r i u u r i Z 4.>.L p p p w 5 4 4 e p l l p p u r r u u r r u r u r u r u u r ",
"| ! v e w p p s p p p p w e p e i i d d d d i i d i h i i i i Z 4.;.D w p e w 4 : ; < 5 p p p w i i i i i i i h i i i i i i i i ",
"| ! v e w p p l l p p p e e w p r i i d d d i i i u i i i u i C 6.;.D w p p w 4 ; ; # : 8 p p p i u i i i i i i i i u i i u i i ",
"| ! m p p p l m z l l p p p p p i i i i i i i i i i i u i i i Z 6.6.D w p p p 4 # .   # 5 p s l i i i i i u u i i i i i i i i i ",
"@.! m w w p s v l l l s s p p p i i i i i i i i i i i u i u u Z 4.1.D w p l s 8 # +   # 5 p s l i i r u i u r u i i i i i i i i ",
" .! m w w p p z s l s s s p p s u r u r u r u r i r r r u r r C >.>.V p l l l w ; + + # 5 p p s u u u u r r r u u r u r u r u r ",
" .! m e w p p s p s s s p s s s r u r u r u r r r r u r i r r C >.;.V p l l l w 4 # + # < 8 e e u r r i r u r u r u r u r u r u ",
"| ! m w e e p p p s p p p s s l i i i i i i i i i i i u i i i Z 1.>.V p s s l w < # + + # ; : : r u i i u u i i i i i i i i i i ",
"| ! v p w p p s p p p p p p p p i i i i i i i i i i i i i u i Z 4.;.D e s p p e 5 < ; ; ; # * ; r i i i u i i i i i i i i i i i ",
"` ! v p e p e s p e p p p p p p i u u u u u u u u r i r i u r Z 1.>.V p p e s p p e w w 4 ; * ; 0 r i i u u i i u u u u u u i u ",
"_ I v w e p p p e p p e w e w w i u u u u u u u i u i u i r u Z 1.;.D w p e p p s s s p w : * * 7 r i r r r u r u u u u u u u u ",
"' ^ b r r 7 0 u r i i i r u i h i i i i i i i i i h i i j u i J 6.1.Z r r r r i u i i r 7 = % o = 1 7 r r u i i i i r u i i i i ",
"' R j r 7 7 7 r r r i i u r u i i i i u i i i u i i r u i r r Z <.1.C 0 r r r i r i i u r = * % * = = 7 7 0 r i r r 7 7 u i u u ",
"( R B i i u r r u i i h i u i i i u u u i u u u u i i i i u u B &.&.B 0 r r i i r i h i u r 7 7 % * = = 7 7 r u r r 7 7 7 r r i ",
"+.' R Z J Z B B Z Z J J J Z Z Z Z Z Z Z Z Z Z C Z Z Z Z Z B B ^ <.=.R B C C C C B Z K K Z C B C j h i h b B B B Z B B B b B Z Z ",
"e.7.<.&.7.2.<.&.<.<.7.2.2.<.<.<.<.<.<.<.<.<.<.<.<.<.<.<.<.<.<.7.u.u.<.+.<.=.<.=.<.<.<.<.<.=.<.<.<.&.&.&.<.<.7.<.<.2.e.0.<.=.<.<.",
"7.<.=.<.u.u.7.<.<.<.<.7.2.2.2.7.<.<.<.=.<.<.=.<.<.<.=.<.=.<.<.<.7.2.&.&.<.<.7.<.1.2.<.<.=.=.<.7.7.7.<.<.7.7.7.<.7.e.d.d.8.<.<.&.",
"Z Z Z ( &.<.' Z B B Z Z Z Z Z Z B B B B B B B B B B B C B B C B C Z b B Z K K C Z Z Z C B B B Z C Z Z Z C Z B b Z ^ <.<.R b j i ",
"i i i J ....K h r r r r r r u r r u r r u r u r i r u i r i i r r r 0 i i d h r i i i u r 0 r u r r r u r r 7 7 r B ..&.B 7 = % ",
"7 r i J <.=.Z j r 0 0 7 7 7 r r i u u u u u u u i i i i i i u u r r r i i r r 7 7 0 r r r r r i 7 7 r r r 0 7 7 u Z <.<.B 7 % % ",
"7 r i Z <.<.Z h r r r r r r r i i i i i i i i i i i i i i i i i i i i i i i 0 7 0 0 i i r r r i 0 r r r r r r 7 i J 7.<.C 7 % o ",
"7 7 r B <.<.Z i r i h h i i i h r u r u u r r u u r r u r u r u i i i i i i 0 0 r i i i i i u i r r u u u u i u i K <.&.b 1 % % ",
"7 7 r B <.2.C r i i h j i i i i r r r r r r r r r r r r r r r r i i i i i i r r i i i i i i u r r u h i i i h i i Z <.X.h * o o ",
"r r r C <.7.B 7 r r i i i r r r u r u r r r u r r u r r u u u u i r r i i i i u i i i i i i r r r i h h h i h h i Z &...i * o % ",
"i r r Z 7.7.B 7 r r i i i r r u u u u u i u u i u u i u u u u u r r r u i i i i u i u i i i r r r i h h i i i h i C <.X.h = % % ",
"u r r Z 7.7.B 7 r i i i i u i i u u u u u u u u u u u u r u r u i u r r u i i i r 0 0 r i i r r r i i h i r r u i Z 2.<.B = % % ",
"r r r Z 7.8.B 0 r r i i i i i h u u u u u u u u i i i i i i u i i i i r u u u u 0 0 0 0 i i i r 7 u i h r 0 7 r r Z 7.<.C 7 * % ",
"u r 7 C =.<.Z r i r u u i i i u r u u u i i i i h h i i i i i i u u u i u u u u r r r r r u u r r u i h i r r r 7 Z 7.7.Z r = % ",
"u r 0 B <.<.J r r r r u u i i r u r r i u u u i i i i i u u i r r u r r r u r u u r r r u u u i r i i i i r r r 0 Z 7.2.Z 7 * % ",
"i i r J 7.2.K u r r r i i i u r i i i i i i i i u u u u i u u i i i i u u r r r u u i i i h i i i u i u u u u r r Z 7.<.B 1 * * ",
"i i r J 7.2.K u 0 r r i u u r 0 u u i i u r r r r r r r r r r r u r r r r r r r r r r r u i i i u r 0 7 0 r r 7 0 B <.=.j = o % ",
"r i i Y 7.2.Y i r r u i i i u r i i i i i i u u u u u u i i i i i i u u u r u r r r r r r i u i i i 0 0 r u u r i Z <.&.B 1 * * ",
"r u i J <.&.Z u r r r u i r r 7 u r i i u r r r u r u r u u u u r u r r r r r r 0 r r r r r r u i r r 0 r r r u u B &...h = = = ",
"u i i C X.{ B u r r u i u i r r r r r u r r r r u u u u u u u u r u u r u u u u i i i i u u i i i i r r r u u i i B ' ( i 7 7 7 ",
"Z Z Z R <.<.R B B B Z Z Z Z B B B B B C C C B B Z Z Z Z Z Z Z Z C C Z Z Z Z Z Z Z Z J Z Z Z Z Z K Z C B B Z Z Z J R <.&.Z j B b ",
"<.<.<.7.a.a.8.&.<.<.2.2.<.<.&.<.<.=.<.<.<.<.<.2.2.2.<.<.<.<.<.<.2.2.2.2.2.<.<.<.<.=.<.&.<.&.<.=.<.<.<.<.=.<.<.<.<.8.u.u.<.&.&.<.",
"<.=.+.<.e.e.<.&.<.=.<.<.<.&.<.=.&.<.<.=.<.<.<.<.2.2.<.<.<.=.<.<.7.2.2.<.<.<.&.&.&.&.&.&.&.&.=.&.=.<.=.<.<.<.<.<.&.<.e.0.<.X.&.<.",
"Y J B B J Y J Z Z Y K J Z Z B Z Z J J K K K Z J Z Z Z B B B B B Z Z Z B B j j j h h j j B B b B Z Z J J C Z Z Z B Z Y Y B B Z Y ",
"h i 7 7 r r r r i i i r r 7 7 0 r 0 7 7 7 7 7 7 7 7 1 7 7 7 7 7 7 7 7 1 = = * * % = 1 7 7 r r r 0 r u i r 7 7 0 0 7 r u 7 0 u u ",
"i i r 7 r r u u i i i r 7 7 7 7 = 1 1 = = * = * = = = = 1 = 1 1 = = = = = % % % = = 7 7 r i i h r u i i u r r r u r u r r r i i ",
"u i r r i i r i i i i r 7 = = = * * % % % % o % % o % * = = = 1 = = * * * * * = = = 7 7 r u i i u i h i i r r 0 r r i u r 0 r r ",
"r u r r i i r u u u r 7 = * % % * * % o % o o o % = = 1 7 7 r r r r r 0 r r r r r r r r i u i i i i i i i u r 0 u u h h r 7 r u ",
"r i r u i i u i r r r 7 1 % o o = * % % % o % o % * = 1 7 r r u u u u r r r r u u u u r r r r r j i i i i u r r i i b j r r r u "
};
