/* XPM */
static char *result[] = {
/* columns rows colors chars-per-pixel */
"64 64 22 1 ",
"  c #1F1D1C",
". c #211E1E",
"X c #22211E",
"o c #231F20",
"O c #252322",
"+ c #292625",
"@ c #262823",
"# c #2B2927",
"$ c #2D2B29",
"% c #312E2C",
"& c #34312E",
"* c #363331",
"= c #393633",
"- c #3C3936",
"; c #3F3B38",
": c #403B36",
"> c #413D3A",
", c #44413D",
"< c #49423F",
"1 c #464340",
"2 c #494541",
"3 c #4C4944",
/* pixels */
".XXO@@OOOo       oooOOOooX   .. X XXXXXO@#OOX     XXooooo o ooo@",
" OOO@@#@OOXX XoOO@OO@O@@OOXX ooOOOOOOOOO@#@OXXX XOOO@@O@###$@@oO",
".OO+@%%%##OXoOO@@@$@$$$##@OX OO+O++####$$$$#OOOXO@##$$$%%%%$$@Oo",
".OO#$&**%#OXO+#$$$%%$%%$$#@O O+##$$$$%%***&$##OX@$$$$$$&***%$#Xo",
".O+$$*=*%$OOO##$%%%%%**%$$#OOO@#$$%%%&&**=*%$+Oo+#$%%%%*===&$#Oo",
"XOO#%&**%$OOO#$$%%%%%%%%$#OOOO@#$%%&&&&***&$$+O.O#%%%%%&&**%$#O.",
" O@$%%&&$#@OO#$%$%%%%%%$$#@OOOO#$$%&&&&&&&$$$+o.@#$$%%%%&&%%##O.",
"XOO#$$$$$#OOO@#$$$$$$$$##OOO XO@@@@$$$$$$$++@+ooO+@$###$######OX",
"XX+#$$$$@$@XXX@+#@@OOOOOOOoo.oooOXXo@@OOoOooXXoooOOOOOO@+OX X@XO",
"XX+++@@@O@O   .OOOOoOOOOOOOOoooo@OOOOooOOooooOoOOOOOooOO++@XX@@O",
"XO@+@@@@OOOOXOOOOXoOO@@@@+######$@Oooooo+@@@O@@#O@@OOOo@+$+$++OO",
"X+++++@@$$@#+++OXXO@#$#$##$$$$$%$@@ooo@@######$$$$#OOoO@$$%%$$+X",
"X++#$$$$$&&%$$+@OOO#$$$$$$$*%%%%%$+oo@@$$$$$$$$$$$$$OO#$$%%&*&#O",
"X+#$$%&&&==*&$$+OOO#$$$$$%$*:**%%$+OOO+$$$$%%$%***&$#O@$$%%***#X",
"XX#$&&&&**--*%$@@O@#$$$&&&**:&&:$%@OO++$$%%&%&*==-*$@@@$$%%*=*$O",
".X#%&&*****=*%$$OOO#$$&%%$**%:%&$@+@++$$$%&*====--=%$@@@%$%*==#O",
".X+$%&&&*%**%%%+ooo+$$%%%%*%*%%%$++++++%$%***===***&#O@##$%**&%o",
".X@+#%$&%%$$++++ooo++#$$$%$$$%$#+++o++++$$%%%*%***&$@oo#$$&**&$#",
"OXO+####++++++++$o+o+++++++$++++++++++++++$$$%%$%%$#OOoOO++@#+OO",
"OOXOXX+++$++$$$+$#+$+$+++++++#+#++$+++$$$$$$+++$$@$$$$##@@o###+@",
"X+++##$$$$+$$%%%%%%%%%%%%++++$%%%$%%%%%%%$$$++$$$%%%%*%%%%$%%%++",
"++$%&%%%%%$+$%*%&&&&**%%%+++%%%%**%*****=*%$+++%%%&*******%%%&++",
"+#%%&*&&%%+$%%****=-:=:%%%++%%**=====>:>==*$$++%****===-;===**o+",
"+#%*=--=*%$+%***-::>>::*%$++%%*%====<<<<<==%%+$%**==;;,321>-*&++",
"++%*::>>=&$#%%::->>1<>:**##o$*::>:>:><<3<=*%$$$%%===;>><32<==%o$",
"+#&*::>;=%%$%**:->>1<:-*&%%#$&*:>>>>>><<<==*$++%*====-><<1>=*%#+",
"+#&*:::::%%#%%%:=-=-::=*%%$+$**:==>==><;:*=%+$$%%*====:=-**%%$$+",
"+#%&&&&&%$$#$%%*&*&&*&%%%$$$$%%*===***%***%%+++$+$$$$$%$$$$##$$+",
"##$$$$##+++++$$+#$%$###++#+###$$%%%%%%$$$++$+++++++++$++$$$+$$++",
"++$$$$$$%%%%$%++$$##%###$$$$%%%%%%%%+$+++$$$$$%%***%$$+$%%%%%%$$",
"+$%%%%&&*%*%*%%%$#$%%%***$&%&&&%*%%++++%%%%%%*%:*:**%+$+$%%*:*%$",
"+#%*:&:*::>::**%$+#%%**=:::*::::=*%$+$%=******:>>>::*$$+$:::::*$",
"+++*===;;<<<>==%%+$%%*=-;-=:><>>=*%$+$%===>==>=<<<<>=+$$%==<<>*+",
"++%*;;>>;<<<>=*%$$+%%:-;;--:<>>:=*%$+$%==;>==>><<<<>=+++%==<>>=+",
"++$*=;>;;><>===%%$+%**==--::::::=*%$++*==>>>>=>>>>>==+$+$*=:>=%+",
"+++**=========%%$++%%*****:%%%%%%$+$$$%%**%*%*%*%**%%$$++%%*==++",
"+++%%%%%%%%%%%%$$++%$$$$$$++++$$$$$++$+$$$$$$$$$$$$++$+$$+$$+$++",
"+o+%%$$+%$$$++++$$$%$%$$$+$$$$$$$+$$$++$$+o$$$+$+$+++$$$$$$++$++",
"++$%%%%%%%%+%%%%%%*%%%%$%$$+$$$$%%%%%%%%%%%%$o$$$%%%%%%%%%%%%%++",
"++%%**===*%%+%**====-===*%%$$$%$***=======*%%%o$$%*%=%*==>===*$+",
"+$%===<<>=*$$%*===;><<>=:%%$$$$:=====><<>;**%%o+%*=====;<<>=**$o",
"+$%===><>>*$$*==;>>><<>;**%$$%$:=>>>;><<<>=*%%$$%*===;><<<<>=%$$",
"++%==;;>>=*$$%=;;;>>>>>==&%$+$%%=>>>>>><<>=*%%+$%*=;;;;;<>>=**$+",
"++%==:;===%%%*==;;;;>>==*&%$+$%:==========**%$$+$$%%%**=*=*%*%$$",
"++%%*:***%%$$%**=%*=*=**%%%###%&%%%%=*=*%%%%%$$$++$+$++$++$$+$$+",
"+++%%%%%$$$$$$%$$$+++$$+####$#+++++o++$+ooo++o$+$$$$+ooo++oo+ooo",
"++++o++++++$o$$$$++$+++$#$$$$$$%%$$$$+o++ooo+$$$%%%%$oo+++$$%++o",
"ooo++++++++$$$$$$$$$++$$%$%%&%&&*%%$$+o+$%***%***%%%$+o++***=%+o",
"oo++$&$&&&&&&&&&%$$#@##$*%**&--;-*%%$#O@#%&==---==*%$oo$%%*==*$O",
"oo+%%&*====--==&%$$#@@$%***=-::>;=&$$#oo$%*---;;>==%$oo%%*==-*%o",
"oo+%&*=-------=&*$$+O@$&**---:--=*%$$#O@$%*----;>=*%%oo$$%*=*%$o",
"o++%%*=:=--*==&&$$#+OO$$%%**=****&%$$@oo+%**----==*%%oo+$%&%%$+o",
"oo##%%*%&%&%%%$$$++@XX@#$%$%%$%%$$$$$+OO+$$%%$$&%%%$$+o+##$#@@+o",
"ooO+++###$$##@@@++@@XX##X+#X+#X.O@@@@+OOO+O+OOOO+++o++o+O@OO+Ooo",
"ooo..OOOoOOO#OOX@++++$$$$###XO++#O@@@@+OO+$++oooo+$$++++@#@##Ooo",
"oo++#++##$#@#OOO++$$$&&%%$$#X+##$##$$$$$$$$$#+Oo+$$$+$+$$$$$#@Oo",
"X###$$$**%%$$@oO##%%&--&$$$#OO$$%$$$$%=&%$$$@@O+$$$$$$$%%%%$$#@ ",
"X@$$$$*=--&$#@OOX%%%=--=&$##OO#$$$$$$-;;-*$$+OO#$@$$$$%*==*&$@@ ",
"X##$*$*=;-&%$#O+X&%&&--&$$#@OO##$%%%$&=;;*$#+OO@@$$$&&&*==*&$#O ",
"X@#$$&**=*%$#+Oo#%%&&&&%$##@XX@$$%%%&&**-=%#+OO@+$$$&&%&**&&$#O ",
"o@++$$$$%$$$++o++$&&%%%$$##OoOO#$%%%&%%%%%###@OO@##$$&$&$$$$#@Oo",
"XO++#$$$+++++@oO++##$$#####OXOO#$$$%$$$$#$###@XX@@+++#$+$##+@@@O",
"..O@OOXXOX . oooOO++OOoOOOOOoXOO#@@@@@@@+@+OO+OXXO@OXXXXOXoOOoo$",
"o...XO          .OOOO      XoooOOOoOoX XX..O...OO@O.    oXoO@@##"
};
