/* XPM */
static char *result[] = {
/* columns rows colors chars-per-pixel */
"64 64 54 1 ",
"  c #27211E",
". c #28221F",
"X c #1D3629",
"o c #1E3B2C",
"O c #262621",
"+ c #2C2522",
"@ c #252C25",
"# c #2E2925",
"$ c #2C2E28",
"% c #312A26",
"& c #352D2A",
"* c #382F2C",
"= c #233127",
"- c #293027",
"; c #23352A",
": c #2B342B",
"> c #223B2D",
", c #2C392E",
"< c #34322C",
"1 c #3A322E",
"2 c #30392F",
"3 c #253E30",
"4 c #2C3D31",
"5 c #343730",
"6 c #3C3531",
"7 c #333C32",
"8 c #3D3A34",
"9 c #403733",
"0 c #423A36",
"q c #453D39",
"w c #493F3B",
"e c #1F4330",
"r c #21402F",
"t c #254433",
"y c #2A4435",
"u c #264837",
"i c #284837",
"p c #2F4638",
"a c #2D4939",
"s c #334136",
"d c #384137",
"f c #334539",
"g c #3B4239",
"h c #33493B",
"j c #44423C",
"k c #4A423D",
"l c #4E4541",
"z c #4D4842",
"x c #504641",
"c c #534A45",
"v c #574D48",
"b c #594F4A",
"n c #5C534D",
"m c #615751",
/* pixels */
"+.#oiiyii&<5o@%&5u8q6X<O+<<&&&;XoyO+*4y3s000yX;..#r%%&11;;<11&1#",
"  :oy*6yi1&;XO%&&u3j6X#+&&&*&:X33i:+&&;Xy0k9oX:.&&;,1188,X;&&&<+",
" +:;&68di7;X$.%&&5ia2X+&&&&*5it5<i3+&&:X>j02r>%.&&&><19jq>X&&&1 ",
"O+:>&688to;,5+%&&&53uX35&&&5yy4&%yi+&&&o>812er+.&&12e,kkk8X&&&+.",
" %;3**6633ttit##&%&&:o4u2&<4a861&,i+5&&;>1&te,.+1&&1>r,091X;%%.+",
"+#X;&165p552,iu#++#+@o%2i&1i4q86&&3+6&<3>1&se,..1&&&&;e>&&;X+.. ",
"+;X2&&*y5%#+#%i3*&&%+X;&ty1yjqq6<&3++@tX...,r-...11&&&:erooX@#%+",
"@Xt5&&yy&#+#%<2u88<*%XX<5t18qw86<<4  X>;+%&<r:%%.-,&1&&&;oooooo>",
">31%*%4u+++&*&7ijq8&&@X7<<16091&<t@%&Xo&&&<1t,<&&rr.+++...;o>>;%",
"3$&6*5uu++.&&<u40wq&%@;35&&16*&4i,.#&X=&&&&1r,<&*ry+++++#&=X%%%%",
"++++++uu#%+4uui8600&&@;y<&&&yyiuy..%1X-%&111rt91&ry&&+%.&%;o99%%",
"+ ++@@33468$45<<1**&*$X,11&<oty51..1&X>&6668ttfyru&9%&++&%>>kk1%",
" +1$;4>>3ll%+&*<1<166:X@$6<t;<&*%.+1&>o16668dtyrt<&1&&.+&%>2bkj&",
" +%X3iu=>4k%..#&%%%#+;X;+%i3;&<#.+.*%t>&16617yr<&&&&&-+%&->509%&",
" &;3u4%+$X5%++%%%%%%<3X@ Oto@O+:#++&*<><&&1*<io<&&&&<y-.%;>299%%",
"+&Xp77&#+>;++&&6*54yttX4&&X3@+:t*%+*&&r>&&1&54o>s&&&:>;.;-o291&&",
" :>fjh6&+uX+&&&164ayi75i1&>o>,oXj0#+&<<><%&<u<&X>rr:>;#.r;eX%&&%",
"+:>3>ak*%$o3<&*64i78lw077*,oXXo8kk1++&&>r.,uy..+oX>>;.&.X#oo+&&.",
" :X>>uz5&#@33u61ai8qzcw2>5,7@@16001+..+>ery,&&&&r+..%%&=X.Xo:%..",
" %X>,o76%<+:X366yi8qlxw8o,<y#+11911+.,2y>y611111>1&%..%;XX;e;X-%",
"+&X>6>36&#+&<X48ya600q002><4,+%&1&#.ui71>r890811>&<.&&1;;11e,;;<",
"+&oX<3o<&++%&;X3yi5168909>;,,#.+.#+yi218oX0q0091r<..&61;X98o>5X;",
"++>X&5o,++++#&;o48166686&:o>:%%%+%yiu19k>>kckj91>%.%1j9>;nnrr1-X",
"# @X4<3X+%%%#:3XX16160&+:uu><&*&.#i28610>ykvck9>>+-;10k2Xvnr>&&;",
"+++X3<3o6&6<ti2;>;5q&+:it4y>3811&#i21111rywkxq1>>+XX6605X89>>&%X",
"++++$+uX6<67a88<;X$%++yi166yrkk01.#<6918o21909<o,+=X<116;61e>1,-",
"##&%%#u,<67hlxlq5;X%&64y68qjt3v01#+&811a>88991:r:+@Xo;<;>1<r:%X.",
"%&&6<3u@&6uqlcvxq5X,61<i0qqwgogk1+%%&<yt>9111<o>##+@XXXo-&-;+++%",
"&*6q8u3#&1ugqllxk0oX6&&y5qq00>>1&%+%2ur;<11&:oo+++#&+++&1&r;&11&",
"&68lai5#+%i78800963X6&&416161oo1&##&;:;&&&&;X@+++#%<&%++#-.&9c0&",
"&68pi,8&+#57666666446*&111111>>#++#oX=+#&#.o;.+#&11611<#.#.18981",
"&66y3gq6&#%8686*6*:t&*&6691&#:,+%6,o@###.&#;r<1&11911&*1%%%1119&",
"&&1t:9q06%&%%#996%#,+##++%+++%#16lo3wllq&&*&@%&&10w61661*%%%&1&&",
"&&&o,6690%##++%%+++%%61&+++#%%*0wq33vbbl1*&6+#&16kwq00xx6&&%%+6%",
"8%&:119q#+%%&&&%+++%66nvq9+%&&1qqwgawww01*&*+%&199qqwwlck91*1++1",
"&%&&11*$#&&*11&&&&+%66xml6++&166wwj76666*1+++++&110kqwkkk001*&+&",
"%&&&6&++&166qkq96*&%%6qlw6+#*&1*1961&%&%%++%61#+*1600kjwqq06&&++",
"&661*$+**669kzcx0*&&+#6001++&&&&&&%%$%&*+%661&&+#&1199006861&+++",
"*wv8&+&&&69wqkvbx9*&#+%00&+++#++++#+#%%&*1666811#+&160666**&&+++",
"6wbw&+&&66qwqklcc01&<++%%+++++#%%&*&+#+%%666qlk9<#+11006&%+++++#",
"&0996+%111kwwqkkw061*#+%%%&&&616666&*%++%69qwlcx6%#+%%+++++%%+++",
"#0q06+%&16qqqqjqq616*%%%&&&*1600llw91&&++169wklk611+#++#%6*&&&*+",
"#+&&&+&&&119qqq0111&*+&&&**66qqkcvck6&*%+%*90wwq861+#%%1&166*&6%",
"++ ++++%&&11666111&&+.&&&696qwwwlccw81*&++&190q0666##***9qcl66*+",
"++%%%%+%+%&*&11&&&*%.&&&&60qqqqqwkl0861&+++1961166% *&100wcvq6*%",
"+&&&&&1*%++&11&&*&%..1&&&0qqqqqqqqqq616*++.*6111*+ *&&9qq0lcl6*+",
"%&&&80qk9%+##....%...&*&&00q0qq00wq061*&%+.++%#++.+*&&6q0qqq9**%",
"+&&&0qlvk91#.#&&&&%#+%1&&**6880q000661&&+.*&&&*11*+&1&&80006*&%+",
".*%190kzc6&+ <&*6661+&1&*&6166*8661661&& 1&&&&&&*&%+**&696111%.+",
".*&*19800*&++&&16lk1%+&&&&*1&&&611666&&++&&&&&6**&& +**11&*1#+++",
" #1&*<666&&#+%&16wl6&++&&%&&&&&&&*1***++*&&&&*006*&% +&&#&+++++.",
"..+1&&&1<&&& +&*6606&1+++++++++*&%#+%+.+&&&&10kkw9&&%.++++#+#%&+",
".+++#+%#%#+++ %&&*1&&&++%%%%%++++++++++%&&&168kllw*&% +%%&&0kk1+",
"...++++++++++++%&&**&  %&&%**%+++&%&%+..*&166680w06&%++%&668xk1.",
"++&&&&&&&&&%%%%++     &&&*61*%##&&&&&%+ &&166666666&%++%&6666&&&",
"+#&&&&&&116661&%%#++++&&&0lw6&#%&&166<#+%&&166<6661&%+++&&611&&&",
"+&&&&&&*<6qqw06*&&*%+#&*&qllq%+*&*qww6&++1&116666*&&%+&+%&6&&&&+",
"+&&*&&&&66qwlw86*&*%+%1&&66q8*#%&*8wwq&+ 1&&&666*&&&%++.++%%%&++",
"+&*&&&&&*60wkw06*&&<+#1&&6616&+%&&6666%% +1&&&&*&&&&&O+&&%+#+#++",
"+&%*&&*&**6686*&&&&%+#&&&166**.%1&6666&&O &**&&&&&&%+%%&&&&&%%++",
" *&&*&&&&&&&&&&&&&&*++1&&111&& %&&&666&6%++%6&&&&*%++&&&&*q06&& ",
" +*&<%&&&&*&&&&&&&1&++1&&&&&&& #6&&&%&&%&+ ++%&&&% +&&&&&*wkq1& ",
"  %&&6&&1&&&&6*61%#+++&<&*&&%.  %6**&&&<&++ +  ++  %&&&&**9ww1&+",
"   %&11&&%&%&%%#%%+ + +1*&&&#.. . ++++++      +   +&&*&****9k9&%"
};
