/* XPM */
static char *result[] = {
/* columns rows colors chars-per-pixel */
"64 64 25 1 ",
"  c #27211E",
". c #28221F",
"X c #2C2522",
"o c #2F2825",
"O c #312A26",
"+ c #352D2A",
"@ c #382F2C",
"# c #37302C",
"$ c #3A322E",
"% c #3D3531",
"& c #3F3834",
"* c #403733",
"= c #423A36",
"- c #453D39",
"; c #493F3B",
": c #47403B",
"> c #4A423D",
", c #4E4541",
"< c #4F4842",
"1 c #504741",
"2 c #534A45",
"3 c #574D48",
"4 c #594F4A",
"5 c #5C534D",
"6 c #615751",
/* pixels */
"X.XO++###+##XXO++#%-%++XX##++++++%XX+++&**:*$+X..O++o+$$$$@$$+@O",
"  O++@%%%%++OXO++%=-#+XX++++++++++XX++%=:::*$++.O+++$$%&&&@@@+$.",
" X+++%&=&%@++XO++%&&+OX+++++++@+++XX++$=:::$@++.@++$$**:::@+++$ ",
" X+++%&==&$+@.OO++++OoX++++%%%%+++XX++#%**@@@+XX@+$$$*>>::@++@..",
" O+++%%&%$$$#XXo+++OXXO++++%%&%##OXO#+++@++++$.X@+++**:::%$++O..",
"XO+++#%##@+OXXOXXXXXXX++++%%===%#O.X%#++++@++X.X$@$@+O$++#OO....",
"XO+++++#@+OXoO++++++XXO+O+$&-;-%@O.X.XXXXXX..X...+@+++++OOo..oOo",
"X+++++##@XXXO++#&&##X O+++$&--*$+@.  XXoOOO+O+OO..o+$+++O..O+++o",
"  #+#++OXXX++##%;,%++XO+++$*=*$@@O.O++++++@@@++++XX.XXo....++++X",
" X+$###X X.+#+#%&>=+OXX@+++$$@+++O.O++++++@@$@@+++OXX.XXo@+++oOO",
"X XXXXXXoOX+###%%=&++XX$@++++++@$..O@+++#$@****@+@@++Xo.++++*:OO",
"X  XXXXo$&&o####%@@+@OXO$@+++#++$..$+O++%$%*>>:*@++*O+XX+OO$>>$O",
" X%+##Xo%,,OX###+#%%$O.XO$#+++@@O.o#O@+@%%%*::>**++@+OoX+++$>>:O",
" o++O#OX%%:O  oO+OXOXX..X+$$++$O...#++++%$%%%**@O+++OOXo+O$*:*++",
" O++##OXO$#oXXOOOOOOOOoX..oOo.oooo.++++++@@@+#@++++++Oo.+++***oO",
"X+#%%%#XX#oXX##%#+###$#@$OX...O+#Oo+@+@@++#+++@@+++++.O.O++@**++",
" O%=:,%+X...++@$%$%$%%%$+#+.XO+$::OO+$$@+OO++@+o$@+$oXOXo++++++o",
" #%=-2>@+.X#@@$%$%%&>>&%$++OXo#=>>$.o+OoOo..X.X.O+@+X.+.OOXXo++.",
" @%%%,,%+XX#$%%$%&&-<2>&$$+$XO$*:*$....ooOO@+++OXX.XoOOo...+@O..",
" O@%%==%+$ #+$$%%%--><;=*$+#O.#$%++o.o+@@$*@*@$@$*+oo.O++O+++OOO",
".++%%%%$+oX+@@$$%%%&-===$$O#O.O++$O.O@$*****%*%%@$OXO++@***+*@+@",
"o++@#%$++XXO+@$%%$%%%&=&=##OoO.....$@$%$**::::%$$+XX+***$***@*@+",
"XX$+++++XXXXO+@$%%$%%%&%#o.OOOOO.+*+$$*:>>>>>>%*@OXO$:**>66::*++",
"o X%%#OXXo+ooXO#@@%%%&@XXOO+++#+O.++$*$:>>>>>:*@+OX+$*>:>>>*$@++",
"X.X+$+XX%+$$@+OOO+$=#XXX+%%%==$#+.+#&$%$%=:>>:*+#..+%%*&:::$$+++",
"XXXXoXX$%$%%&&%$+ooOXX$$$%%=>1>=$..$%%%$$%%*=*#@#oo#$$$&*$*$++$+",
"XX++ooo%@%&-,<,-%+OO+%$+%*-;132=$OoO%$%$%=&&*$+@@.o$$%&$*$+OOOXX",
"+++%$@XoO%=;,33,-%XO%+$#=--->>1>$.o+@$%$%=$%%+++OOO..O&$++OXXXoO",
"+@%;;%oXO$&--:,,>&XX%+++%-==---*#O.O@++@#$$#+OO...O#..o+$+O.+**+",
"+%%22;%oX@$%%&=-&%OX$@++$$%%$%$$#OO++@+++++..o...O+#+Oo..O.+*>:O",
"O%%,32=+XX$$&#%$%$OX%#+$$%@@$$OX...oO..OOOO..o.O+#$&@++oOoo$$:*+",
"@%%=,,;$@X+&&&%$%$OX+$+$%*%+XXoXO&&$Oooo.OOO.$++$$&%&##$OO.@$%*+",
"+@$%%===%O+OOO&&$+ooXooXXOXXXoO$&>4>>>>>++++XO++$--%%$%$#OOO+$++",
"+++@%%%*=ooXXXXOoXXoO%$@oXXoO+@&::>>455>$$+%XX+#%>;-==11%+OOOO@+",
"&O+@$$%-oXO++++OXXoo&$6<&&Xo++$-:::>>>>=$@++XO+$$=-;;-<3>*##$XX$",
"OO+$$$%oo++@$$++++oo%%<6,%XX+$%%:::**$*$+$oXoXX+$$=:-->>>-*$$+X+",
"O+++%+XX+%%%->=&%#+XO%-,,%Xo@+##$%%@OOOOOXXO%$XX#$%=--:---=$++XX",
"+%%$#OX#+%%&;,3<&$#+Xo%&&@XX@@++++OOOO+$oX%%$++OO+$$*===&*%%+XXX",
"+;3*#X++@%*-:,33,&#+oXO&-+XXXXXXXoXOOO++$$%%%*$#oX#$$=%$%+++#XXX",
"%;4>+XO+%&--::,3<&%#@XXOOXXXXXoO+O++XoXO+$%&=<>*#oX#$-=%+OXXXXXX",
"+===&XO+$$--;->:>=%$+oXOoo+@@%%%%$$$+OXXO%*-;>21%+oX+OXXXXXOXXXX",
"O&=&%XO@%%------=%%%+oo++++@$%%&><>=$++XX$$*->1>%$$XXXXXO%+++@%X",
"oXO++X+++$%&---&%%#++X+++@$%%--,251>%#$O.O$*=-;-%$@XoO+#+%%%@+$X",
"XXXXXXXO++@&&%%%%+++XXO++%%&--;;<11>%$++Xo+$=-==%%&XO#$+&-2,&%+O",
"XXOoOoooXO++@@@+++@X.++++%=-----::>-%%$$XXO$$*$*%%oX@+#==>23-$@O",
"X++++#$+OXXO%@++++O.X@+++&----------&$$$XX.+%$$$#X.+++&-==,2,%@X",
"OO++%=->%OXXXXXXXXX.X+@++&===------=%$@+OX.XOOo.X.X#++%-=---*@@O",
"O+#+=-<3,%%XXX++++OXX+@++#%%&&=====%$$++X.#+O+#$$@X@#@#====%@+OX",
".+O#==><<%+XX+++$%%#X+$+++%%%%$=%%$%%#++ $++++##@+oX+@+%&%%+$OXX",
".#+#$%&=&%OXX++%=,;%OX+@+++$+++$#%%%%+@XX@++++##@++.X+@%+++%XXXX",
" o$###%%%#+OX++#%;,%+XoO+o++++++++#@##XX@++++#%=%$+o X++O+XXXXXX",
"..o#+++#++++XX++%%=%+#XXXXXXXXX@#OoXoo X++++$&,,;&++OXXXXXXooOOX",
"..XXooOOOoXX  X+O$#++OXXoOOooXXXXoXXXXXX+++#%&:,,-#+O.XO++#=,>+X",
"...X.XXXXXXXXXXO++$#@X O++++@+XXXOO+Oo X@+$%%%&=;=%+OXXO+#%%<>$X",
"oXO+++#++++OOOOXX  X  +++$%%@+XX+++#+OX #+#%%%%&%%%+OXXo+#%%%++O",
".O#+++++##%%%#++OoXX X++@=,;@+X+++$%$#oXo+#%%$%$%%%OOXXX+#%%$+++",
"X++++++#%%=->=%+++#OoX++#-,,&#X#+#&>;&+.X$+$$%$%%$++oX+X++#%+++X",
"X+++++++#%-,,;&%@+@OXO$+#%%&&#X#+#&>>=+X $++@%%%$+++OXXXXXX+O+XX",
"X+++++++#%&->;&%#+#OXo#+#$%%%#.O+#%%%$+O X$++++++++++ XO+oXoXoXX",
"X+++++++#%%%%%%+O@+#Xo#+#$%$@# O#+$%&$+@  ++@@+++++OXo+++++++oXX",
"X+++#++++++@++++@O@#XX@###$#+# O#++%$$@%OXX+#++++++.X++++@;*%@+ ",
" X@+#++++++++@+++#$OXX#@O#O@#O o##O+@++O+X XO++@+o .+++++$;>=$+.",
"  X$+%#+##+++$@#%OXXX ##O@#@O. .O%$@@O+#+X.... XX  O++++++%>;#+.",
" ..O+##+O++O+O+OooX XX %##@Oo.. ..XXXXXX.   . . X  $+++$@$@=>&+O"
};
