/* XPM */
static char *_b53abd9d3db41a8a9965c0e0c50080aipOd3MBlqN0lObu0[] = {
/* columns rows colors chars-per-pixel */
"64 64 208 2 ",
"   c #737375",
".  c #747476",
"X  c #777779",
"o  c #79797B",
"O  c #78787A",
"+  c #7A7A7C",
"@  c #7B7B7D",
"#  c #6D6D6F",
"$  c #515153",
"%  c #444446",
"&  c #464648",
"*  c #474749",
"=  c #767678",
"-  c #6C6C6E",
";  c #525254",
":  c #454547",
">  c #7C7C7E",
",  c #757577",
"<  c #6B6B6D",
"1  c #535355",
"2  c #68686A",
"3  c #6A6A6C",
"4  c #69696B",
"5  c #606062",
"6  c #505052",
"7  c #59595B",
"8  c #4E4E50",
"9  c #49494B",
"0  c #5A5A5C",
"q  c #6E6E70",
"w  c #6F6F71",
"e  c #656567",
"r  c #454548",
"t  c #444447",
"y  c #434447",
"u  c #434347",
"i  c #424247",
"p  c #4F4D4A",
"a  c #676251",
"s  c #746D54",
"d  c #736D54",
"f  c #736C54",
"g  c #3F4046",
"h  c #646050",
"j  c #AFA063",
"k  c #D6C16D",
"l  c #D4C06D",
"z  c #D2BE6C",
"x  c #978B5D",
"c  c #E1CA70",
"v  c #FFEB7A",
"b  c #FFEA7A",
"n  c #645F50",
"m  c #4D4C4A",
"M  c #424347",
"N  c #434547",
"B  c #444548",
"V  c #454648",
"C  c #F8DE76",
"Z  c #FFE879",
"A  c #AE9F63",
"S  c #3E3F46",
"D  c #404046",
"F  c #424447",
"G  c #F4DB75",
"H  c #DDC76F",
"J  c #D1BD6C",
"K  c #D2BD6C",
"L  c #968A5D",
"P  c #6F6A53",
"I  c #716C53",
"U  c #736853",
"Y  c #735C50",
"T  c #735B50",
"R  c #736752",
"E  c #736E54",
"W  c #745D50",
"Q  c #68524D",
"!  c #514A4A",
"~  c #94895C",
"^  c #6F6953",
"/  c #716A53",
"(  c #F6DD76",
")  c #DEC86F",
"_  c #D1BE6C",
"`  c #D2C06D",
"'  c #D2AF69",
"]  c #D28C62",
"[  c #D28B61",
"{  c #D2AD69",
"}  c #D2C16D",
"|  c #D2C26D",
" . c #D4B16A",
".. c #D68E62",
"X. c #B06E59",
"o. c #3D3F46",
"O. c #FFE679",
"+. c #FFE678",
"@. c #FFE478",
"#. c #FFD976",
"$. c #FFC672",
"%. c #FFAF6D",
"&. c #FFB66E",
"*. c #FFDA76",
"=. c #FFC973",
"-. c #FFB36E",
";. c #404147",
":. c #FFE979",
">. c #FFD876",
",. c #FFB56E",
"<. c #FFAE6D",
"1. c #FFC571",
"2. c #FFE578",
"3. c #FFB06D",
"4. c #FFE779",
"5. c #FFE077",
"6. c #FFD775",
"7. c #FFC572",
"8. c #FFB46E",
"9. c #FFD675",
"0. c #FFE278",
"q. c #FFC371",
"w. c #FFAD6C",
"e. c #FFAC6C",
"r. c #FFB36D",
"t. c #FFC471",
"y. c #FFD575",
"u. c #FFE378",
"i. c #FFB26D",
"p. c #D2BF6D",
"a. c #F6CC72",
"s. c #DE9564",
"d. c #D18B61",
"f. c #D2AE69",
"g. c #D1AE69",
"h. c #DDCB70",
"j. c #F4DE76",
"k. c #F4A96A",
"l. c #DDB86C",
"z. c #D1C06D",
"x. c #D1BF6D",
"c. c #DDB66C",
"v. c #F4A86A",
"b. c #F4DF76",
"n. c #DDCA70",
"m. c #D1AC68",
"M. c #D18A61",
"N. c #DD9564",
"B. c #F4CC72",
"V. c #E1C56F",
"C. c #967959",
"Z. c #6F594F",
"A. c #716652",
"S. c #715A50",
"D. c #6F6552",
"F. c #958B5D",
"G. c #DDC86F",
"H. c #DDB76C",
"J. c #95855B",
"K. c #6D6953",
"L. c #6D6952",
"P. c #95845B",
"I. c #DDC970",
"U. c #958A5D",
"Y. c #6D6251",
"T. c #6D574F",
"R. c #957959",
"E. c #DDC36E",
"W. c #AEA063",
"Q. c #646150",
"!. c #3E4146",
"~. c #404146",
"^. c #3F4146",
"/. c #706A53",
"(. c #D3BF6D",
"). c #FFED7B",
"_. c #FFEE7B",
"`. c #D3C06D",
"'. c #3A3C45",
"]. c #3A3D45",
"[. c #3A3E45",
"{. c #706B53",
"}. c #FFEC7B",
"|. c #4D4D4A",
" X c #404247",
".X c #726B53",
"XX c #D5C06D",
"oX c #FFEF7B",
"OX c #D5C16D",
"+X c #726C53",
"@X c #3C3D45",
"#X c #3C3E45",
"$X c #3C3E46",
"%X c #726C54",
"&X c #686351",
"*X c #B0A164",
"=X c #D8C26E",
"-X c #414147",
";X c #514F4B",
":X c #746E54",
">X c #414247",
",X c #48484A",
"<X c #434345",
"1X c #4A4A4C",
"2X c #545456",
"3X c #4F4F51",
"4X c #616163",
"5X c white",
/* pixels */
"  . X o O o + @ + + + # $ % & * & & & & & & & & & & & & & & & & & & & & & & & & & & & & & & & & * & % $ # + + + @ + o O o X .   ",
". = o + O O + + o + + - ; : & * & & & & & & & & & & & & & & & & & & & & & & & & & & & & & & & & * & : ; - + + o + + O O + o = . ",
"X o > @ X , O o O O X < 1 * * * & & & & & & & & & & & & & & & & & & & & & & & & & & & & & & & & * * * 1 < X O O o O , X @ > o X ",
"o + @ = - 2 3 < < 3 4 5 6 * & & & & & & & & & & & & & & & & & & & & & & & & & & & & & & & & & & & & * 6 5 4 3 < < 3 2 - = @ + o ",
"O O X - 7 6 $ ; ; $ $ 8 9 & & & & & & & & & & & & & & & & & & & & & & & & & & & & & & & & & & & & & & 9 8 $ $ ; ; $ $ 0 - X O O ",
"o O , 2 6 % % : : : : : & & : : & & & & & & & & & & & & & & & & & & & & & & & & & & & & & & & & : : & & : : : : : : : $ 2 , O o ",
"+ + O 3 $ % : : : : : : & & & & & & & & & & & & & & & & & & & & & & & & & & & & & & & & & & & & & & & & : : : : : : : $ 3 O + + ",
"@ + o < ; : : & & & & & & & & & & & & & & & & & & & & & & & & & & & & & & & & & & & & & & & & & & & & & & & & & & : : ; < o + @ ",
"+ o O 3 ; : : & & & & & & & & & & & & & & & & & & & & & & & & & & & & & & & & & & & & & & & & & & & & & & & & & & : : ; < O o + ",
"+ + + - ; : : & & & & & & & & & & & & & & & & & & & & & & & & & & & & & & & & & & & & & & & & & & & & & & & & & & : : $ 3 O + + ",
"+ @ > q 1 : : & & & & & & & & & & & & & & & & & & & & & & & & & & & & & & & & & & & & & & & & & & & & & & & & & & : : $ 4 X + + ",
"# q w e 6 : : & & & & & & & & & & & & & & & & & & & & & & & & & & & & & & & & & & & & & & & & & & & & & & & & & & : : 8 5 < - # ",
"; 1 1 6 9 & & & & & & & & & & & & & & & & & & & & & & & & & & & & & & & & & & & & & & & & & & & & & & & & & & & & & & 9 6 1 ; $ ",
": : : : & & & & & & & & & & & & & & & & & & & & & & & & & & & & & & & & & & & & & & & & & & & & & & & & & & & & & & & & * * : % ",
": : : : & & & & & & & & & & & & & & & & & & & & & & & & & & & & & & & & & & & & & & & & & & & & & & & & & & & & & & & & * * & & ",
"& & & & & & & & & & & & & & & & & & & & & & & & & & & & & & & & & & & & & & & & & & & & & & & & & & & & & & & & & & & & * * * * ",
"& & & & & & & & & & & & & & & & & & & & & & & & & & & & & & & & & & & & & & & & & & & & & & & & & & & & & & & & & & & & & & & & ",
"& & & & & & & & & & & & & & & & & & & & & & & & & & & & & & & & & & & & & & & & & & & & & & & & & & & & & & & & & & & & & & & & ",
"& & & & & & & & & & & & & & & & & & & & & & & & & & & & & & & & & & & & & & & & & & & & & & & & & & & & & & & & & & & & & & & & ",
"& & & & & & & & & & & & & & & & & & & & & & & & & & & & & & & & & & & & & & & & & & & & & & & & & & & & & & & & & & & & & & & & ",
"& & & & & & & & & & & & & & & & & & & & & & & & & & & & & & & & & & & & & & & & & & & & & & & & & & & & & & & & & & & & & & & & ",
"& & & & & r t y y y y y y y y t r & & & & & & & & & & & & & & & & & & & & & & & & & & & & & & & & & & & & & & & & & & & & & & & ",
"& & & & & r u i i i i i i i i u r & & & & & & & & & & & & & & & & & & & & & & & & & & & & & & & & & & & & & & & & & & & & & & & ",
"& & & r u p a s d f f f f d s a p u r & & & & & & & & & & & & & & & & & & & & & & & & & & & & & & & & & & & & & & & & & & & & & ",
"& & & u g h j k l z z z z l k j h g u & & & & & & & & & & & & & & & & & & & & & & & & & & & & & & & & & & & & & & & & & & & & & ",
"& r r p h x c v v b b b b v v c x n m M u y N N y y y y N N y y y y N N y y y y N N y y y y N N y y y y N N y y y y N B V & & & ",
"& t u a j c C Z b b b b b b Z C c A h S D M F F M i i M F F M i i M F F M i i M F F M i i M F F M i i M F F M i i M F N V & & & ",
"& y i s k v Z G H J K K J H G Z b c L P I U Y T R d E U Y T R d E U Y T R d E U Y T R d E U Y T R d E U Y T R d E U W Q ! V V & ",
"& y i d l v b H ~ ^ / / ^ ~ H Z Z ( ) _ ` ' ] [ { } | ' ] [ { } | ' ] [ { } | ' ] [ { } | ' ] [ { } | ' ] [ { } |  ...X.Q N B & ",
"& y i f z b b J ^ o.g g o.^ J Z O.+.Z @.#.$.%.&.#.O.*.$.%.&.#.O.*.$.%.&.#.O.*.$.%.&.#.O.*.$.%.&.#.O.*.$.%.&.#.O.*.=.-...W F N & ",
"& y i f z b b K / g ;.;.g / K Z O.+.:.>.,.<.1.#.2.>.,.<.1.#.2.>.,.<.1.#.2.>.,.<.1.#.2.>.,.<.1.#.2.>.,.<.1.#.2.>.,.3.=. .U M y & ",
"& y i f z b b K / g ;.;.g / K Z 4.5.6.7.<.,.>.2.#.1.<.,.>.2.#.1.<.,.>.2.#.1.<.8.9.0.9.q.w.,.>.@.6.q.e.r.6.2.#.t.e.,.#.} E i y & ",
"& y i f z b b J ^ o.g g o.^ J :.Z y.,.3.$.*.O.#.&.%.$.*.O.#.&.%.$.*.O.#.&.%.$.#.u.y.i.w.$.*.O.>.-.e.q.6.2.#.&.%.t.6.@.p.d i y & ",
"& y i d l v b H ~ ^ / / ^ ~ H :.b a.s.d.f.| } { [ ] ' | } { [ ] ' | } { [ [ g.h.j.y.r.k.l.z.x.c.v.-.9.b.n.m.M.N.B.b b z f i y & ",
"& y i s k v Z G H J K K J H G Z v V.C.Z.A.E d R T Y U E d R T Y U E d R T S.D.F.G.u.>.H.J.K.L.P.c.>.@.I.U.Y.T.R.E.v b z f i y & ",
"& t u a j c C Z b b b b b b Z C c W.Q.!.~.i i M F F M i i M F F M i i M F ^.o./.(.)._.`./.'.'./.`._.).(./.].[.{.(.}.}.l d i y & ",
"& r r p h x c v v b b b b v v c x h |.F u y y y N N y y y y N N y y y y N  Xg .XXX_.oXOX+X@X@X+XOXoX_.XX.X#X$X%XXX_._.k s i y & ",
"& & & u g h j k l z z z z l k j h g u & & & & & & & & & & & & & & & & & & t u &X*X=X=X*X&X-X-X&X*X=X=X*X&X-X-X&X*X=X=X*X&Xu t & ",
"& & & r u p a s d f f f f d s a p u r & & & & & & & & & & & & & & & & & & r r ;X&X:X:X&X;XB B ;X&X:X:X&X;XB B ;X&X:X:X&X;Xr r & ",
"& & & & & r u i i i i i i i i u r & & & & & & & & & & & & & & & & & & & & & & r u >X>Xu r & & r u >X>Xu r & & r u >X>Xu r & & & ",
"& & & & & r t y y y y y y y y t r & & & & & & & & & & & & & & & & & & & & & & r t y y t r & & r t y y t r & & r t y y t r & & & ",
"& & & & & & & & & & & & & & & & & & & & & & & & & & & & & & & & & & & & & & & & & & & & & & & & & & & & & & & & & & & & & & & & ",
"& & & & & & & & & & & & & & & & & & & & & & & & & & & & & & & & & & & & & & & & & & & & & & & & & & & & & & & & & & & & & & & & ",
"& & & & & & & & & & & & & & & & & & & & & & & & & & & & & & & & & & & & & & & & & & & & & & & & & & & & & & & & & & & & & & & & ",
"& & & & & & & & & & & & & & & & & & & & & & & & & & & & & & & & & & & & & & & & & & & & & & & & & & & & & & & & & & & & & & & & ",
"& & & & & & & & & & & & & & & & & & & & & & & & & & & & & & & & & & & & & & & & & & & & & & & & & & & & & & & & & & & & & & & & ",
"& & & & & & & & & & & & & & & & & & & & & & & & & & & & & & & & & & & & & & & & & & & & & & & & & & & & & & & & & & & & & & & & ",
"& & & & & & & & & & & & & & & & & & & & & & & & & & & & & & & & & & & & & & & & & & & & & & & & & & & & & & & & & & & & & & & & ",
"& & & & & & & & & & & & & & & & & & & & & & & & & & & & & & & & & & & & & & & & & & & & & & & & & & & & & & & & & & & & & & & & ",
": : : : & & & & & & & & & & & & & & & & & & & & & & & & & & & & & & & & & & & & & & & & & & & & & & & & & & & & & & & & & : : : ",
": : : : & & & & & & & & & & & & & & & & & & & & & & & & & & & & & & & & & & & & & & & & & & & & & & & & & & & & & & & & : : % % ",
"; ; $ 8 9 & & & & & & & & & & & & & & & & & & & & & & & & & & & & & & & & & & & & & & & & & & & & & & & & & & & & & & 9 8 $ ; ; ",
"# - 3 5 8 : : & & & & & & & & & & & & & & & & & & & & & & & & & & & & & & & & & & & & & & & & & & & & & & & & & & & : 8 5 3 - # ",
"+ + X 4 $ : : & & & & & & & & & & & & & & & & & & & & & & & & & & & & & & & & & & & & & & & & & & & & & & & & & & : : $ 4 X + + ",
"+ + O 3 ; : : & & & & & & & & & & & & & & & & & & & & & & & & & & & & & & & & & & & & & & & & & & & & & & & * * & : : ; 3 O + + ",
"+ o O < ; : : & & & & & & & & & & & & & & & & & & & & & & & & & & & & & & & & & & & & & & & & & & & & & & & * * & : : ; < O o + ",
"@ + o < ; : : & & & & & & & & & & & & & & & & & & & & & & & & & & & & & & & & & & & & & & & & & & & & & & & & & & : : ; < o + @ ",
"+ + O 3 $ % : : : : : : & & & & & & & & & & & & & & & & & & & & & & & & & & & & & & & & & & & & & & & & & & & : : % % $ 3 O + + ",
"o O , 2 6 % % : : : : : & & & & & & & & & & & & & & & & & & & & & & & & & & & & & & & & & & & & & & & * ,X,X& % % <X: $ 2 , O o ",
"O O X - 7 6 $ ; ; ; $ 8 9 & & & & & & & & & & & & & & & & & & & & & & & & & & & & & & & & & & & & & & 1X$ 2X1 $ 6 6 $ 0 - X O O ",
"o + @ = - 2 3 < < 3 4 5 8 : : & & & & & & & & & & & & & & & & & & & & & & & & & & & & & & & & & & : : 3X4X3 < 3 < 3 2 - = @ + o ",
"X o > @ X , O o O O X 3 $ : : & & & & & & & & & & & & & & & & & & & & & & & & & & & & & & & & & & : : $ 3 X O O o O , X @ > o X ",
". = o + O O + + o + + - $ % & * & & & & & & & & & & & & & & & & & & & & & & & & & & & & & & & & * & % $ - + o o + + O O + o = . ",
"  . X o O o + @ + + + # ; % & * & & & & & & & & & & & & & & & & & & & & & & & & & & & & & & & & * & % ; # + + + @ + o O o X .   "
};
