/* XPM */
static char *_60f5b502cf84677d049fdd15ea7b0ff2E81aNL7E21WgiVA[] = {
/* columns rows colors chars-per-pixel */
"64 64 245 2 ",
"   c #1E201D",
".  c #1F211E",
"X  c #21231E",
"o  c #20221F",
"O  c #212320",
"+  c #202123",
"@  c #212224",
"#  c #2E2E36",
"$  c #2F2F39",
"%  c #2E2D3D",
"&  c #313237",
"*  c #323337",
"=  c #313139",
"-  c #323338",
";  c #32323A",
":  c #33333B",
">  c #333438",
",  c #333439",
"<  c #343539",
"1  c #34353A",
"2  c #35363A",
"3  c #35363B",
"4  c #36373B",
"5  c #32323C",
"6  c #33333D",
"7  c #33333F",
"8  c #34343C",
"9  c #35353D",
"0  c #34343E",
"q  c #36363E",
"w  c #393A3F",
"e  c #313040",
"r  c #323141",
"t  c #333242",
"y  c #353541",
"u  c #363640",
"i  c #383745",
"p  c #3A3B40",
"a  c #3A3A42",
"s  c #393846",
"d  c #393848",
"f  c #3A3949",
"g  c #3F3F49",
"h  c #3D3C4C",
"j  c #3F3E4E",
"k  c #404048",
"l  c #414149",
"z  c #40404A",
"x  c #42424C",
"c  c #43434D",
"v  c #44444C",
"b  c #45454D",
"n  c #46474C",
"m  c #46464E",
"M  c #47474F",
"N  c #47484D",
"B  c #494B48",
"V  c #494B4A",
"C  c #4A4C4B",
"Z  c #48494E",
"A  c #444353",
"S  c #464650",
"D  c #474753",
"F  c #454454",
"G  c #464555",
"H  c #474656",
"J  c #484850",
"K  c #494951",
"L  c #494856",
"P  c #4A4957",
"I  c #4D4D57",
"U  c #494858",
"Y  c #4A4959",
"T  c #4B4A5A",
"R  c #4C4B5B",
"E  c #4D4C5C",
"W  c #4F4E5E",
"Q  c #504F5F",
"!  c #55555D",
"~  c #54545E",
"^  c #55555F",
"/  c #525161",
"(  c #535262",
")  c #545363",
"_  c #565660",
"`  c #575761",
"'  c #555464",
"]  c #565565",
"[  c #575664",
"{  c #585765",
"}  c #585767",
"|  c #585862",
" . c #595963",
".. c #5A5A64",
"X. c #5B5B67",
"o. c #595868",
"O. c #5A5969",
"+. c #5C5B6B",
"@. c #5C5C68",
"#. c #5D5D69",
"$. c #5E5D6B",
"%. c #5F5F6B",
"&. c #5D5C6C",
"*. c #5E5D6D",
"=. c #5F5E6C",
"-. c #5F5E6E",
";. c #5F5E70",
":. c #605F6D",
">. c #605F6F",
",. c #605F71",
"<. c #61616B",
"1. c #60606C",
"2. c #61616D",
"3. c #62626C",
"4. c #63636D",
"5. c #61606E",
"6. c #62616F",
"7. c #62626E",
"8. c #63636F",
"9. c #64646E",
"0. c #616070",
"q. c #626171",
"w. c #616072",
"e. c #626173",
"r. c #636272",
"t. c #646373",
"y. c #646470",
"u. c #666672",
"i. c #676773",
"p. c #656474",
"a. c #666575",
"s. c #676674",
"d. c #676676",
"f. c #686775",
"g. c #686777",
"h. c #686874",
"j. c #696975",
"k. c #696876",
"l. c #6A6A76",
"z. c #6B6B77",
"x. c #6C6C74",
"c. c #6D6D75",
"v. c #6C6C76",
"b. c #6D6D77",
"n. c #6E6E76",
"m. c #6F6F77",
"M. c #696878",
"N. c #6A6979",
"B. c #6B6A78",
"V. c #6B6A7A",
"C. c #6C6B7B",
"Z. c #6C6C78",
"A. c #6E6E78",
"S. c #6E6D7B",
"D. c #6E6E7A",
"F. c #6D6C7C",
"G. c #6E6D7D",
"H. c #6F6E7C",
"J. c #6F6E7E",
"K. c #706F7F",
"L. c #707078",
"P. c #717179",
"I. c #70707C",
"U. c #73737F",
"Y. c #74747C",
"T. c #747381",
"R. c #747383",
"E. c #747480",
"W. c #757482",
"Q. c #767583",
"!. c #767682",
"~. c #777783",
"^. c #757484",
"/. c #767585",
"(. c #777686",
"). c #787787",
"_. c #787884",
"`. c #797985",
"'. c #797886",
"]. c #7A7987",
"[. c #7A7A86",
"{. c #7B7B87",
"}. c #797888",
"|. c #7A7989",
" X c #7B7A88",
".X c #7B7A8A",
"XX c #7C7B89",
"oX c #7C7B8B",
"OX c #7C7C88",
"+X c #7D7D89",
"@X c #7F7F89",
"#X c #7D7C8A",
"$X c #7E7D8B",
"%X c #7E7E8A",
"&X c #7F7F8B",
"*X c #7B7A8C",
"=X c #7C7B8D",
"-X c #7D7C8C",
";X c #7E7D8D",
":X c #7F7E8C",
">X c #7D7C8E",
",X c #7E7D8F",
"<X c #7F7E8E",
"1X c #7F7E90",
"2X c #807F8D",
"3X c #807F8F",
"4X c #807F91",
"5X c #80808A",
"6X c #81818B",
"7X c #80808C",
"8X c #81818D",
"9X c #82828C",
"0X c #83838D",
"qX c #81808E",
"wX c #82818F",
"eX c #82828E",
"rX c #83838F",
"tX c #84848E",
"yX c #818090",
"uX c #828191",
"iX c #838290",
"pX c #818092",
"aX c #828193",
"sX c #838292",
"dX c #848391",
"fX c #848393",
"gX c #848490",
"hX c #868692",
"jX c #878793",
"kX c #838294",
"lX c #848395",
"zX c #858494",
"xX c #868595",
"cX c #878694",
"vX c #858496",
"bX c #878696",
"nX c #888797",
"mX c #9D9EA3",
"MX c #C3C3CD",
"NX c #C3C3CF",
"BX c #C4C3D3",
"VX c #C4C4D0",
"CX c #C4C3D5",
"ZX c #C5C4D6",
"AX c #C8C8D4",
/* pixels */
"NXNXNXNXMXBXMXMXBXMXMXMXBXMXMXBXMXMXNXNXNXNXNXNXNXNXNXNXNXNXNXNXNXNXNXNXNXNXNXNXNXNXNXNXNXNXNXNXNXNXNXNXNXNXNXNXNXNXNXNXNXNXNXNX",
"NXNXMXMXMXMXMXMXMXMXMXMXMXMXMXMXMXMXMXMXMXMXNXNXMXMXMXMXNXNXMXMXMXMXMXMXMXMXMXMXMXNXMXMXMXMXMXNXMXMXMXMXMXNXMXMXMXMXMXMXMXMXMXMX",
"MXBXMXMXBXMXMXBXBXVXVXVXVXVXVXVXNXBXBXBXBXNXNXVXVXVXVXVXNXNXBXBXVXVXVXVXVXVXVXVXBXNXNXNXNXNXNXVXVXVXVXVXBXNXNXNXNXVXVXVXVXVXVXVX",
"BXBXBXCXBXBXCXCXBXBXBXBXBXBXBXBXBXBXBXBXBXBXBXBXBXBXBXBXBXBXBXNXBXBXBXBXBXBXBXBXBXBXBXBXBXBXBXBXBXBXBXBXBXBXBXBXBXBXBXBXBXBXBXBX",
"CXCXCXCXCXCXCXCXBXBXBXBXBXZXZXZXBXBXBXBXZXZXZXZXBXZXBXZXZXBXZXBXBXZXNXZXBXZXBXZXZXZXBXZXZXZXZXZXBXZXZXBXZXZXBXZXZXBXZXZXBXZXZXBX",
"CXCXZXAXZXZXZXZXZXZXZXZXAXZXZXZXZXZXZXZXZXZXZXZXZXZXZXZXZXZXZXZXZXZXZXZXZXZXZXZXZXZXZXZXZXZXZXCXZXZXZXZXZXZXZXZXZXZXZXZXZXZXZXZX",
"AXAXAXAXAXAXAXAXAXAXAXAXAXAXAXAXAXAXAXAXAXAXAXAXAXAXAXAXAXAXAXAXZXAXAXAXAXAXAXAXAXAXAXAXAXAXAXAXAXAXAXAXAXAXAXAXAXAXAXAXAXAXAXAX",
"mXmXmXmXmXmXmXmXmXmXmXmXmXmXmXmXmXmXmXmXmXmXmXmXmXmXmXmXmXmXmXmXmXmXmXmXmXmXmXmXmXmXmXmXmXmXmXmXmXmXmXmXmXmXmXmXmXmXmXmXmXmXmXmX",
"V C C C C C V V V V V V B B B B C C C C C C C C V V V V V V V V C B B B V B B B V V V V C C V V B B V V B V B B B B V V B B B B ",
"      .         .   o     . . .                                 . . . . . . . .     . . . .       X     X           . . . . . . ",
". O O . O . . O o O X X X X X X o o o o   o o o   O X O @     O X X . . O X o o O . . O o o o o X X X X X X X X . X X X X X X X ",
"O O O O O O O O o o O O O O O X O O O O . o o O O O O O O X O X O O O . O O o o O O O O O O O O O O O O O X @ . o o O O O O O X ",
"@ @ @ @ @ @ @ O @ @ @ . @ . @ @ O @ @ o @ O @ O @ O @ @ @ @ @ @ @ o o @ o @ . @ @ @ O @ @ @ O @ @ . @ @ . @ @ @ @ @ @ . o @ @ @ ",
"a w w w w w w a a a a a a a a a w w a w a w a a a w w a w a w w a a a a a a a p a w w w w a w w a a a a a a a a a a a a a a a p ",
"i.g.i.i.i.i.i.g.d.d.g.i.i.g.g.g.g.h.h.g.g.i.h.h.i.g.i.g.h.h.h.h.l.g.g.g.g.g.g.g.h.g.i.i.i.i.i.g.i.g.d.g.g.i.i.g.d.g.g.i.i.g.g.g.",
"qXyX3X3X3XyXqXqX4X4X4X4X4X4X4X4XyX3XeXyXyXqXyXyXqXyXqXqXyXyXyXyX4X4X4X4X4X4X3X4XeXyX3X3X3X3XqXyXyX4X4X4X4X4X4X4X4X4X4X4X4X4X4X4X",
"nXdXoXoX;XyXyXyX;X3XyX3X3X;X3XyX3X5X5X3X5X3X5X3X2X5XqX3X5X5XqX5XyXyX;X;XyXyXyX2XyXyXyX;X;X;XyXxX;XyX;XyXyXyX;XyX;XyXyX;XyXyX1XyX",
"dX3X.X.XoX4XyX3X;X3X3X3X;X;X;X;X5X5X5X3X5X5X5X5X2X%X%X5X5X3X%X5X;X;X;X;X;XyX;X;XyXyXyX;X.XoX;XyX2X1X2X;X;X1X2X1X2X;X1X2X;X2X;X;X",
"oX.X)..X;X3X3X3X;X3X3X3X;X;X;X3X;X%X;X%X%X3X%X;X%X2X;X2X%X;X2X;X;X;X;X;XyX1X1X;X;XyXyX;X.X(..X.X1X2X1X;X;X2X1X2X1X1X;X;X2X;X2X1X",
".X.X.X.X;X3X;X;X3X3XyX3X;X;X;X3X3X%X3X%X%X;X%X;X2X%X2X;X;X%X%X2XyX2X;X;XyXyXyX;X;X;X;X;X.X.X.X.X;X;X1X2X1X2X;X;X;X2X2X1X1X1X2X;X",
";XoX;X;X3X3X;X;XoX;X3X3X3X;X3X3X;X1X;X1X;X1X;XqX;X2X;X2X;X4X;X4X1X;X;X;XyXyX;X;X;X;X;X;X;X;X;X;X2X1X;X2X1X;X2X1X1X2X2X;X;X;X2X1X",
"3X3X3X3X3X;XoXoX;X3XyXyX3X;X3XyXqX;XqX;XqX;X1X;X4X;X4X;X2X;X2X;XyXyX;XyXyXyX2X;X;XoX1X2XyX;X;XyX2X;X1X2X1X2X;X1X;X;X1X1X2X1X2X;X",
"3X3X3X3X;XoX;XoX;XyXyXyX3X3X4X3X4X4X4X4X4X4XyX4X4X4X4X4X4X4X4X4XyXyXyXyXyXyXyX;X;XoX;X;X1XyX1XyX1X1X;X;X;X;X2X2X2X1X;X2X1X2X1X;X",
"3X3X;X;X;XoXoXoX3X4XdX3X3X;X;X;X4X4X4X4X4X4X4X4X4X4X4X4X4X4X4X4X;X;X;X;XyXyXyX;XoX;X.X;X;X2X;XyX;X2X2X1X2X1X1X;X2X;X1X2X;X;X1X2X",
";X;X;X;X;X;X;X;XyX3XoXoX;X.X.X;X1X1X1X1X1X1X1X1X1X1X1X1X;X4X1X1X;X.X.XoX;X;XyX;X;X;X;X;X=X;X;X2X;X1X1X2X1X2X2X;X1X;X2X1X;X;X2X1X",
"3X3X3X;X;X3X3X3X3X3XoXoXoXoXoX;X;X;X;X;X2X;X;X2X;X4X2X;X2X;X;X2X;X.X;X;X.X.X;XyXyX2X;X;X;X;X;XyX2X2X;X;X;X;X1X1X1X2X;X1X2X1X2X;X",
"3X3X3X3X3XyXyXyX;XoXoX.X3X;X;X3X;X5X3XqXqXqX2XqX2X2X2X2X2X2X2X2X;X;XyXyX.X.X;X;XyXyXyX1XyXyXyX;X1X;X2X1X2X1X;X2X;X;X2X2X1X2X1X;X",
"3X;X3X3X3X3XyX3XoXoXoX;XdXyX3X4XqX3X3XqXqXqX2XqX2X2X2X2X2X2X2X2XyX;XxXyX;X.X.X;XyXyX;XyX;X;X;XyX1X2X;X1X2X;X1X2X2X1X1X;X;X;X1X2X",
";X;X;X;X3X;X;X3XoX;X3XyXnXxX;X.X5X@X5X5X5X5X5X5X5X5X2X5X5X5X2X5XoX=XfXnXyX2X;X;XyX1X;X2X;X;X;X;X;X;X2X1X2X1X;X;X;X1X1X2X2X2X1X;X",
";XoX;X;X;X;X;X;X.X;X;XdXxXoXG.d.x.x.b.Z.b.b.Z.Z.Z.Z.b.b.b.b.b.b.d.C.oXvXxX;X*X.X2X;X;X;X;X;X;X;X2X1X2X;X;X1X2X1X2X2X;X;X1X;X1X2X",
";X;X;X3X3X3X;X;X.XoX;XyX3XG.} Y J J J K K K K N K Z K J Z J J J L { Z.2X2X%X.X[.2X1X1X2X;X;X;X;X1X2X1X;X;X2X1X2X1X;X2X1X;X1X;X2X",
";X3X;X3X3X;X;X3XoX;X;X3X.Xp.Y d 1 3 3 3 3 3 3 3 3 3 3 3 3 3 3 3 i P f.oX2X;X%X%X;X;XyX;XyXyXyXyX;X;X1X2X1X2X;X;X1X2X;X1X2X2X;X1X",
";X2X;XyX;X;XoX;X;X;XxXxXyXC.G r * * 3 3 3 3 3 3 > 3 > > > 3 3 3 6 J h.qXjXhX%X[.[.%X2X2X2X2X2X@XoX;X;X2X2X4X2X;X2X1X;X2X4X2X4X4X",
";X;XyXyX2X;X;X;X=X2XyXxXyXN.G r ; ; 3 3 3 3 3 3 > > > > > > > 3 t L z.2XjXjX2X%X%X2X@X%X%X@X2X2XoX%X;X;X4X2X2X1X2X;X4X2X2X4X4X2X",
"1X;XyX;X1X;XyXyX;X;XyXyX.XN.R f 3 3 3 3 * ; 3 3 > > > > > > * * i L f.[.2X2X[.[.2X2X%X2X%X2X%XoX2X4X2X4X4X2X2X4X4X4X2X4X4X2X;X;X",
"1X2X1X2X;X;XyXyX;XoX1X;X.XT.] E K K Z J J Z Z Z Z Z Z Z Z n V v P { K.[.oX%X[.oX9X2XoXoX%X%X2XoX4X2X4X2X2X4XyX4X4X2X4X2X2X2X;X;X",
";X1X;X;X.X;X;XyXyX;XyXyXyX;XG.d.b.m.m.b.b.z.b.K.m.L.L.L.L.b.x.b.f.K.=XfX2XfX2X4XyX4X=XoX=X=X2X=X;X;X;X;X;X2X2X1X1X2X2X4X4X4X2X;X",
";X2X;X;X.X.X;X;XyXyXyXyXyXxX;X.XqXqXqXqX5X2XqX5XtX9XhX9XfX9X5X5XoXoXnXvX4X2X2XvX4X2XoXoXoX4X2X;X;X;X4X2X2X;X2X2X=X;X;X2X;X2X2X4X",
";X2X;X;X.X).;X1X;X;X;X;XyXxXyXyX5X3XqX5X2XoX2X2X2X2X2X2X2X2X%XoX4X4XvX4X=X=X4X4X4X1X*XoX;X4X1X1X;X2X2X2X4XyXyX4X;X;X;X;X2X4X4X4X",
";X;X;X;X.X.X.X;X2XoX;X.XyXyX1XyX;X3X4XqX2X;X=X=X2X;X;X;XoX=XoXoXvX4XvX4X2X4X=X4X4X=X*X=X=X4X1X1X=X;X4X4XyX4X4X2X2X2X;X;X;X2X4X2X",
";X;XyXyX;X;X;XyXyXyX;X;X.X;X;X;X4X1XyXyX1XyX1X1X1X;X4X1X1X=X4X4X=X1X4X=X=X4X4XvX4X4X4X4X4XfX2X4X2X2X4X2X;XoX=X=X=X;X;X2X;X2X1X=X",
";X1XyXyXyX;XyXyXyXyXyX;XoX.X;X%X;XyXyXyXkXyXkXyX4X;X1X=X1X4X4X4X2X=X=X2X2X2XvXfX2X4X2X2X2X2X2X=X4X4X;X=X.X).).^.^.^.^.(.).).).).",
".X;XyXyXyX1XyXyXxXxXfXyX;X3X3X4X;X;X;XqXyXqX1XyX4X=XoX=X=X2X2X2X%XoX2X2X2X9XfX9X2X2X=X2X2X2XoXoX4X2XoXW.G.C.f.d.d.f.M.C.C.C.N.C.",
";X;XyXyX;X2X;XyXyXyXfXyXyX4XqXyX;XqXqXqXqXqXqX;X2X2XoX2X;X=X=X4X%X%X2X2X2XfX9X2X%X%X%X2X5X2X2X2XfX4XoXW.C.r.,.>.-.,.,.r.r.r.r.q.",
"yX;XyXyX;X;X.X.X.X;X;X;X;X;X;X;XhXqXqXqXqX;XqXqX2X2X2XqX2X2X2X2X5X5X9X9X5X9X9X5X2X2X5X9XtXtX9X9XfX2X=X).G.M.p.q.>.>.>.q.q.q.q.,.",
"yXyX;X;X;X;X.X.X.X;X;X;X;X;X;X;X%X[.!.!.!.!._.{.[.2XfX2X2X2XoX[.Y.L.b.L.b.L.b.L.x.x.n.K.P.P.L.Y.G.C.C.f.M.d.p.p.r.q.r.r.q.q.q.>.",
"yXyX;XyXyXyXyXyXyX;X;X;X;X;X;X;XZ.h.u.u.u.g.x.I.~.@X5XqX5X9X[.U.! K v J J J J J n J J J Z K J J L U R / { &.>.>.q.q.q.>.>.q.>.q.",
"(.(.(.(..X;X;X;XyXyX;X;X;XyX;X.Xy.3.@.@.@.:.u.Z.U.[.2X5XfXjX[.K.b 3 # ; 3 ; ; ; 3 3 q 3 3 ; ; ; % r f A Q { -.>.r.q.>.>.>.>.q.r.",
"N.d.d.d.N.G..X;XxXyXyX2X;X;X;X(.M.,.-.+.-.>.f.F.W..X2XqX9XnX2XK.S 6 $ 3 6 6 u 3 3 > 3 3 ; > 3 > % e f F Q O.>.r.r.d.r.>.q.>.r.r.",
">.-.-.-.e.C.(..XyXfXyX;X1XyX;X).N.q.-.+.+.>.p.f.G.W.).[.)..XW.z.I z z b z z v v l l l l l l l l h j F E ' +.>.q.r.q.>.>.>.>.>.q.",
"q.-.-.-.q.N.T..XyXyXyX;X;XyX;X.Xf.q.>.>.+.-.>.q.d.f.C.C.f.M.f.r...! ^ | _ ~ | ^ ^ ` | ^ ^ | ^ ^ / ] ] O.-.>.q.r.>.>.-.+.-.>.>.q.",
"q.q.q.-.q.g.G.(..X.X.X(.(.(.(.(.d.q.>.>.>.-.-.-.-.-.>.>.-.&.-.+.3.3.6.9.3.6.6.3.9.6.3.9.3.9.3.3.q.q.q.,.q.q.q.>.>.-.-.-.>.>.>.>.",
"q.q.-.-.-.>.q.d.N.f.N.d.d.N.d.r.r.>.>.q.>.>.>.>.>.+.+.>.-.+.>.>.3.3.>.3.:.3.6.:.3.>.:.3.>.3.6.6.p.p.r.r.q.>.>.-.>.>.>.>.>.>.q.>.",
"q.q.q.>.-.-.q.-.,.q.-.-.-.-.-.-.>.>.q.q.q.q.r.>.,.-.-.>.>.>.r.>.-.>.-.$.:.>.3.$.:.:.:.:.>.>.>.:.p.r.r.>.>.>.>.>.q.>.q.q.q.>.q.>.",
"q.r.r.q.q.q.q.>.q.>.q.-.-.-.-.-.>.>.q.q.q.r.r.q.>.-.-.>.>.>.>.q.,.q.>.>.,.r.r.,.>.r.>.>.q.,.q.,.r.r.r.q.>.>.>.>.>.q.q.q.>.>.>.>.",
"q.r.r.q.q.q.>.q.q.-.-.-.q.-.-.q.q.>.>.q.>.q.r.>.q.>.>.>.-.>.q.>.,.q.,.,.r.,.,.r.,.,.,.,.,.,.q.p.,.>.>.>.>.-.>.>.q.>.q.>.q.>.-.+.",
"-.-.-.-.-.-.-.-.-.-.-.q.>.q.q.q.q.q.q.>.q.>.q.>.>.>.>.>.>.-.-.-.,.,.,.,.,.,.,.;.,.>.;.,.,.,.,.,.r.r.r.r.r.q.q.>.>.>.>.>.>.>.r.q.",
"-.-.-.q.-.-.-.-.-.-.-.>.q.>.q.q.q.q.>.q.>.>.>.>.q.>.q.>.>.>.-.>.q.,.,.q.q.,.e.,.,.,.,.,.,.,.q.,.q.q.r.r.r.r.>.q.>.>.-.>.>.r.r.r.",
"q.q.q.q.q.q.>.q.q.q.>.q.q.>.q.q.r.q.q.>.>.-.>.>.r.r.d.r.r.q.>.>.,.q.q.q.q.q.q.q.q.q.r.,.,.,.>.q.>.>.r.r.r.r.q.>.-.-.-.>.q.r.r.f.",
"q.q.q.q.q.q.q.q.q.>.q.>.>.q.>.q.r.q.>.>.>.-.-.>.r.r.r.r.r.q.>.>.q.>.>.q.q.q.q.q.q.q.r.,.r.q.q.>.>.>.>.r.r.r.q.r.-.-.-.-.>.q.p.p.",
"-.-.-.-.-.-.-.q.q.>.q.q.q.>.q.q.r.q.>.>.-.-.>.>.>.>.>.>.>.-.-.+.>.3.>.3.,.>.3.>.3.q.q.3.>.>.>.3.>.>.q.q.q.q.q.>.>.+.-.+.-.&.>.>.",
"-.q.-.-.-.-.-.q.>.q.-.-.>.q.q.q.q.q.q.>.>.>.>.>.>.>.-.-.>.>.+.-.>.>.>.>.3.>.3.>.>.>.>.3.3.3.>.>.>.>.q.>.>.>.>.q.>.>.>.>.&.-.-.&.",
"q.q.-.-.-.-.-.q.q.>.q.-.q.q.q.q.>.q.q.q.q.q.q.q.q.>.>.>.q.>.q.q.3.3.3.,.3.3.3.>.>.3.3.3.3.>.3.>.q.q.>.>.>.-.>.>.q.q.q.q.q.,.>.>.",
"d.q.-.-.-.-.-.-.q.q.>.q.>.q.q.q.q.>.q.r.r.q.q.q.>.q.>.q.,.,.p.e.3.3.3.3.q.>.3.3.3.3.>.>.3.3.3.3.r.r.q.>.-.-.>.>.>.q.q.r.r.r.q.q."
};
